<?xml version="1.0" encoding="UTF-8"?>
<!--Generator: Apple Native CoreSVG 175.5-->
<!DOCTYPE svg
PUBLIC "-//W3C//DTD SVG 1.1//EN"
       "http://www.w3.org/Graphics/SVG/1.1/DTD/svg11.dtd">
<svg version="1.1" xmlns="http://www.w3.org/2000/svg" xmlns:xlink="http://www.w3.org/1999/xlink" width="3300" height="2200">
 <!--glyph: "uni10158C.medium", point size: 100.0, font version: "18.0d12e2", template writer version: "101"-->
 <g id="Notes">
  <rect height="2200" id="artboard" style="fill:white;opacity:1" width="3300" x="0" y="0"/>
  <line style="fill:none;stroke:black;opacity:1;stroke-width:0.5;" x1="263" x2="3036" y1="292" y2="292"/>
  <text style="stroke:none;fill:black;font-family:sans-serif;font-size:13;font-weight:bold;" transform="matrix(1 0 0 1 263 322)">Weight/Scale Variations</text>
  <text style="stroke:none;fill:black;font-family:sans-serif;font-size:13;text-anchor:middle;" transform="matrix(1 0 0 1 559.711 322)">Ultralight</text>
  <text style="stroke:none;fill:black;font-family:sans-serif;font-size:13;text-anchor:middle;" transform="matrix(1 0 0 1 856.422 322)">Thin</text>
  <text style="stroke:none;fill:black;font-family:sans-serif;font-size:13;text-anchor:middle;" transform="matrix(1 0 0 1 1153.13 322)">Light</text>
  <text style="stroke:none;fill:black;font-family:sans-serif;font-size:13;text-anchor:middle;" transform="matrix(1 0 0 1 1449.84 322)">Regular</text>
  <text style="stroke:none;fill:black;font-family:sans-serif;font-size:13;text-anchor:middle;" transform="matrix(1 0 0 1 1746.56 322)">Medium</text>
  <text style="stroke:none;fill:black;font-family:sans-serif;font-size:13;text-anchor:middle;" transform="matrix(1 0 0 1 2043.27 322)">Semibold</text>
  <text style="stroke:none;fill:black;font-family:sans-serif;font-size:13;text-anchor:middle;" transform="matrix(1 0 0 1 2339.98 322)">Bold</text>
  <text style="stroke:none;fill:black;font-family:sans-serif;font-size:13;text-anchor:middle;" transform="matrix(1 0 0 1 2636.69 322)">Heavy</text>
  <text style="stroke:none;fill:black;font-family:sans-serif;font-size:13;text-anchor:middle;" transform="matrix(1 0 0 1 2933.4 322)">Black</text>
  <line style="fill:none;stroke:black;opacity:1;stroke-width:0.5;" x1="263" x2="3036" y1="1903" y2="1903"/>
  <g transform="matrix(1 0 0 1 263 1933)">
   <path d="M9.24805 0.830078C13.5547 0.830078 17.1387-2.74414 17.1387-7.05078C17.1387-11.3574 13.5449-14.9316 9.23828-14.9316C4.94141-14.9316 1.36719-11.3574 1.36719-7.05078C1.36719-2.74414 4.95117 0.830078 9.24805 0.830078ZM9.24805-0.654297C5.70312-0.654297 2.87109-3.49609 2.87109-7.05078C2.87109-10.6055 5.69336-13.4473 9.23828-13.4473C12.793-13.4473 15.6445-10.6055 15.6445-7.05078C15.6445-3.49609 12.8027-0.654297 9.24805-0.654297ZM5.6543-7.05078C5.6543-6.62109 5.95703-6.32812 6.40625-6.32812L8.50586-6.32812L8.50586-4.20898C8.50586-3.76953 8.79883-3.4668 9.22852-3.4668C9.67773-3.4668 9.9707-3.76953 9.9707-4.20898L9.9707-6.32812L12.0898-6.32812C12.5293-6.32812 12.832-6.62109 12.832-7.05078C12.832-7.49023 12.5293-7.79297 12.0898-7.79297L9.9707-7.79297L9.9707-9.90234C9.9707-10.3516 9.67773-10.6543 9.22852-10.6543C8.79883-10.6543 8.50586-10.3516 8.50586-9.90234L8.50586-7.79297L6.40625-7.79297C5.95703-7.79297 5.6543-7.49023 5.6543-7.05078Z"/>
  </g>
  <g transform="matrix(1 0 0 1 281.867 1933)">
   <path d="M11.709 2.91016C17.1582 2.91016 21.6699-1.61133 21.6699-7.05078C21.6699-12.5 17.1484-17.0117 11.6992-17.0117C6.25977-17.0117 1.74805-12.5 1.74805-7.05078C1.74805-1.61133 6.26953 2.91016 11.709 2.91016ZM11.709 1.25C7.09961 1.25 3.41797-2.44141 3.41797-7.05078C3.41797-11.6602 7.08984-15.3516 11.6992-15.3516C16.3086-15.3516 20.0098-11.6602 20.0098-7.05078C20.0098-2.44141 16.3184 1.25 11.709 1.25ZM7.17773-7.05078C7.17773-6.57227 7.50977-6.25 8.00781-6.25L10.8789-6.25L10.8789-3.36914C10.8789-2.88086 11.2109-2.53906 11.6895-2.53906C12.1777-2.53906 12.5195-2.87109 12.5195-3.36914L12.5195-6.25L15.4004-6.25C15.8887-6.25 16.2305-6.57227 16.2305-7.05078C16.2305-7.53906 15.8887-7.88086 15.4004-7.88086L12.5195-7.88086L12.5195-10.752C12.5195-11.25 12.1777-11.5918 11.6895-11.5918C11.2109-11.5918 10.8789-11.25 10.8789-10.752L10.8789-7.88086L8.00781-7.88086C7.50977-7.88086 7.17773-7.53906 7.17773-7.05078Z"/>
  </g>
  <g transform="matrix(1 0 0 1 305.646 1933)">
   <path d="M14.9707 5.66406C21.9336 5.66406 27.6953-0.0976562 27.6953-7.05078C27.6953-14.0137 21.9238-19.7754 14.9609-19.7754C8.00781-19.7754 2.25586-14.0137 2.25586-7.05078C2.25586-0.0976562 8.01758 5.66406 14.9707 5.66406ZM14.9707 3.84766C8.93555 3.84766 4.08203-1.01562 4.08203-7.05078C4.08203-13.0957 8.92578-17.9492 14.9609-17.9492C21.0059-17.9492 25.8691-13.0957 25.8691-7.05078C25.8691-1.01562 21.0156 3.84766 14.9707 3.84766ZM9.19922-7.05078C9.19922-6.5332 9.57031-6.17188 10.1172-6.17188L14.0625-6.17188L14.0625-2.2168C14.0625-1.67969 14.4336-1.29883 14.9512-1.29883C15.4883-1.29883 15.8594-1.66992 15.8594-2.2168L15.8594-6.17188L19.8145-6.17188C20.3516-6.17188 20.7324-6.5332 20.7324-7.05078C20.7324-7.59766 20.3613-7.96875 19.8145-7.96875L15.8594-7.96875L15.8594-11.9141C15.8594-12.4609 15.4883-12.8418 14.9512-12.8418C14.4336-12.8418 14.0625-12.4609 14.0625-11.9141L14.0625-7.96875L10.1172-7.96875C9.57031-7.96875 9.19922-7.59766 9.19922-7.05078Z"/>
  </g>
  <text style="stroke:none;fill:black;font-family:sans-serif;font-size:13;font-weight:bold;" transform="matrix(1 0 0 1 263 1953)">Design Variations</text>
  <text style="stroke:none;fill:black;font-family:sans-serif;font-size:13;" transform="matrix(1 0 0 1 263 1971)">Symbols are supported in up to nine weights and three scales.</text>
  <text style="stroke:none;fill:black;font-family:sans-serif;font-size:13;" transform="matrix(1 0 0 1 263 1989)">For optimal layout with text and other symbols, vertically align</text>
  <text style="stroke:none;fill:black;font-family:sans-serif;font-size:13;" transform="matrix(1 0 0 1 263 2007)">symbols with the adjacent text.</text>
  <line style="fill:none;stroke:#00AEEF;stroke-width:0.5;opacity:1.0;" x1="776" x2="776" y1="1919" y2="1933"/>
  <g transform="matrix(1 0 0 1 776 1933)">
   <path d="M3.31055 0.15625C3.82812 0.15625 4.08203-0.0390625 4.26758-0.585938L5.52734-4.0332L11.2891-4.0332L12.5488-0.585938C12.7344-0.0390625 12.9883 0.15625 13.4961 0.15625C14.0137 0.15625 14.3457-0.15625 14.3457-0.644531C14.3457-0.810547 14.3164-0.966797 14.2383-1.17188L9.6582-13.3691C9.43359-13.9648 9.0332-14.2676 8.4082-14.2676C7.80273-14.2676 7.39258-13.9746 7.17773-13.3789L2.59766-1.16211C2.51953-0.957031 2.49023-0.800781 2.49023-0.634766C2.49023-0.146484 2.80273 0.15625 3.31055 0.15625ZM6.00586-5.51758L8.37891-12.0898L8.42773-12.0898L10.8008-5.51758Z"/>
  </g>
  <line style="fill:none;stroke:#00AEEF;stroke-width:0.5;opacity:1.0;" x1="793.197" x2="793.197" y1="1919" y2="1933"/>
  <text style="stroke:none;fill:black;font-family:sans-serif;font-size:13;font-weight:bold;" transform="matrix(1 0 0 1 776 1953)">Margins</text>
  <text style="stroke:none;fill:black;font-family:sans-serif;font-size:13;" transform="matrix(1 0 0 1 776 1971)">Leading and trailing margins on the left and right side of each symbol</text>
  <text style="stroke:none;fill:black;font-family:sans-serif;font-size:13;" transform="matrix(1 0 0 1 776 1989)">can be adjusted by modifying the x-location of the margin guidelines.</text>
  <text style="stroke:none;fill:black;font-family:sans-serif;font-size:13;" transform="matrix(1 0 0 1 776 2007)">Modifications are automatically applied proportionally to all</text>
  <text style="stroke:none;fill:black;font-family:sans-serif;font-size:13;" transform="matrix(1 0 0 1 776 2025)">scales and weights.</text>
  <g transform="matrix(1 0 0 1 1289 1933)">
   <path d="M2.8418 1.86523L4.54102 3.57422C5.40039 4.44336 6.38672 4.38477 7.31445 3.35938L18.0078-8.42773L17.041-9.4043L6.42578 2.27539C6.07422 2.67578 5.74219 2.77344 5.27344 2.30469L4.10156 1.14258C3.63281 0.683594 3.74023 0.341797 4.14062-0.0195312L15.6152-10.8203L14.6387-11.7871L3.04688-0.898438C2.06055 0.0195312 1.98242 0.996094 2.8418 1.86523ZM9.25781-16.3281C8.83789-15.918 8.80859-15.3418 9.04297-14.9512C9.27734-14.5898 9.73633-14.3555 10.3809-14.5215C11.8457-14.8633 13.3691-14.9219 14.7949-13.9844L14.209-12.5293C13.8672-11.6992 14.043-11.1133 14.5801-10.5664L16.875-8.25195C17.3633-7.76367 17.7734-7.74414 18.3398-7.8418L19.4043-8.03711L20.0684-7.36328L20.0293-6.80664C19.9902-6.30859 20.1172-5.92773 20.6055-5.44922L21.3672-4.70703C21.8457-4.22852 22.4609-4.19922 22.9297-4.66797L25.8398-7.58789C26.3086-8.05664 26.2891-8.65234 25.8105-9.13086L25.0391-9.89258C24.5605-10.3711 24.1895-10.5273 23.7109-10.4883L23.1348-10.4395L22.4902-11.0742L22.7344-12.1973C22.8613-12.7637 22.7051-13.2031 22.1191-13.7891L19.9219-15.9766C16.582-19.2969 12.1484-19.2188 9.25781-16.3281ZM10.752-15.957C13.1836-17.7344 16.4746-17.4316 18.7012-15.2051L21.1328-12.793C21.3672-12.5586 21.4062-12.373 21.3379-12.0312L21.0156-10.5469L22.5195-9.0625L23.5059-9.12109C23.7598-9.13086 23.8379-9.11133 24.0332-8.91602L24.6094-8.33984L22.168-5.89844L21.5918-6.47461C21.3965-6.66992 21.3672-6.74805 21.377-7.01172L21.4453-7.98828L19.9512-9.47266L18.4277-9.21875C18.1055-9.15039 17.959-9.17969 17.7148-9.41406L15.7129-11.416C15.459-11.6504 15.4297-11.8164 15.5859-12.1875L16.4648-14.2773C14.9023-15.7324 12.8711-16.3574 10.8398-15.7617C10.6836-15.7227 10.625-15.8496 10.752-15.957Z"/>
  </g>
  <text style="stroke:none;fill:black;font-family:sans-serif;font-size:13;font-weight:bold;" transform="matrix(1 0 0 1 1289 1953)">Exporting</text>
  <text style="stroke:none;fill:black;font-family:sans-serif;font-size:13;" transform="matrix(1 0 0 1 1289 1971)">Symbols should be outlined when exporting to ensure the</text>
  <text style="stroke:none;fill:black;font-family:sans-serif;font-size:13;" transform="matrix(1 0 0 1 1289 1989)">design is preserved when submitting to Xcode.</text>
  <text id="template-version" style="stroke:none;fill:black;font-family:sans-serif;font-size:13;text-anchor:end;" transform="matrix(1 0 0 1 3036 1933)">Template v.4.0</text>
  <text style="stroke:none;fill:black;font-family:sans-serif;font-size:13;text-anchor:end;" transform="matrix(1 0 0 1 3036 1951)">Requires Xcode 14 or greater</text>
  <text id="descriptive-name" style="stroke:none;fill:black;font-family:sans-serif;font-size:13;text-anchor:end;" transform="matrix(1 0 0 1 3036 1969)">Generated from dumbbell</text>
  <text style="stroke:none;fill:black;font-family:sans-serif;font-size:13;text-anchor:end;" transform="matrix(1 0 0 1 3036 1987)">Typeset at 100 points</text>
  <text style="stroke:none;fill:black;font-family:sans-serif;font-size:13;" transform="matrix(1 0 0 1 263 726)">Small</text>
  <text style="stroke:none;fill:black;font-family:sans-serif;font-size:13;" transform="matrix(1 0 0 1 263 1156)">Medium</text>
  <text style="stroke:none;fill:black;font-family:sans-serif;font-size:13;" transform="matrix(1 0 0 1 263 1586)">Large</text>
 </g>
 <g id="Guides">
  <g id="H-reference" style="fill:#27AAE1;stroke:none;" transform="matrix(1 0 0 1 339 696)">
   <path d="M0.993654 0L3.63775 0L29.3281-67.1323L30.0303-67.1323L30.0303-70.459L28.1226-70.459ZM11.6885-24.4799L46.9815-24.4799L46.2315-26.7285L12.4385-26.7285ZM55.1196 0L57.7637 0L30.6382-70.459L29.4326-70.459L29.4326-67.1323Z"/>
  </g>
  <line id="Baseline-S" style="fill:none;stroke:#27AAE1;opacity:1;stroke-width:0.5;" x1="263" x2="3036" y1="696" y2="696"/>
  <line id="Capline-S" style="fill:none;stroke:#27AAE1;opacity:1;stroke-width:0.5;" x1="263" x2="3036" y1="625.541" y2="625.541"/>
  <g id="H-reference" style="fill:#27AAE1;stroke:none;" transform="matrix(1 0 0 1 339 1126)">
   <path d="M0.993654 0L3.63775 0L29.3281-67.1323L30.0303-67.1323L30.0303-70.459L28.1226-70.459ZM11.6885-24.4799L46.9815-24.4799L46.2315-26.7285L12.4385-26.7285ZM55.1196 0L57.7637 0L30.6382-70.459L29.4326-70.459L29.4326-67.1323Z"/>
  </g>
  <line id="Baseline-M" style="fill:none;stroke:#27AAE1;opacity:1;stroke-width:0.5;" x1="263" x2="3036" y1="1126" y2="1126"/>
  <line id="Capline-M" style="fill:none;stroke:#27AAE1;opacity:1;stroke-width:0.5;" x1="263" x2="3036" y1="1055.54" y2="1055.54"/>
  <g id="H-reference" style="fill:#27AAE1;stroke:none;" transform="matrix(1 0 0 1 339 1556)">
   <path d="M0.993654 0L3.63775 0L29.3281-67.1323L30.0303-67.1323L30.0303-70.459L28.1226-70.459ZM11.6885-24.4799L46.9815-24.4799L46.2315-26.7285L12.4385-26.7285ZM55.1196 0L57.7637 0L30.6382-70.459L29.4326-70.459L29.4326-67.1323Z"/>
  </g>
  <line id="Baseline-L" style="fill:none;stroke:#27AAE1;opacity:1;stroke-width:0.5;" x1="263" x2="3036" y1="1556" y2="1556"/>
  <line id="Capline-L" style="fill:none;stroke:#27AAE1;opacity:1;stroke-width:0.5;" x1="263" x2="3036" y1="1485.54" y2="1485.54"/>
  <line id="left-margin-Regular-M" style="fill:none;stroke:#00AEEF;stroke-width:0.5;opacity:1.0;" x1="1375.64" x2="1375.64" y1="1030.79" y2="1150.12"/>
  <line id="right-margin-Regular-M" style="fill:none;stroke:#00AEEF;stroke-width:0.5;opacity:1.0;" x1="1524.05" x2="1524.05" y1="1030.79" y2="1150.12"/>
 </g>
 <g id="Symbols">
  <g id="Black-L" transform="matrix(1 0 0 1 2823.82 1556)">
   <path d="M32.1289 2.43649L44.1664 2.43649L44.1664-14.0535L34.4288-14.0535C33.2481-14.0535 32.5155-14.7872 32.5155-15.9667L32.5155-54.7699C32.5155-55.9506 33.2481-56.7064 34.4288-56.7064L44.1664-56.7064L44.1664-73.1379L32.1289-73.1379C23.1192-73.1379 16.084-66.1015 16.084-57.0918L16.084-13.528C16.084-4.71677 23.1192 2.43649 32.1289 2.43649ZM59.394 19.5636L63.4279 19.5636C76.3503 19.5636 84.9563 11.368 84.9563-0.891265L84.9563-69.7065C84.9563-81.9891 76.3551-90.1858 63.4375-90.1858L59.1971-90.1858C46.5281-90.1858 38.0519-81.9891 38.0519-69.7065L38.0519-0.891265C38.0519 11.368 46.5953 19.5636 59.394 19.5636ZM59.5549 2.28145C56.9613 2.28145 55.334 0.61526 55.334-2.0594L55.334-68.5384C55.334-71.2143 56.8952-72.9037 59.358-72.9037L63.2766-72.9037C65.9684-72.9037 67.6949-71.2143 67.6949-68.5384L67.6949-2.0594C67.6949 0.61526 65.9648 2.28145 63.2671 2.28145ZM77.444-38.2893L141.713-38.2893L141.713-55.5715L77.444-55.5715ZM77.444-15.1287L141.713-15.1287L141.713-32.4109L77.444-32.4109ZM155.729 19.5636L159.763 19.5636C172.562 19.5636 181.105 11.368 181.105-0.891265L181.105-69.7065C181.105-81.9891 172.629-90.1858 159.96-90.1858L155.72-90.1858C142.802-90.1858 134.201-81.9891 134.201-69.7065L134.201-0.891265C134.201 11.368 142.828 19.5636 155.729 19.5636ZM155.89 2.28145C153.193 2.28145 151.462 0.61526 151.462-2.0594L151.462-68.5384C151.462-71.2143 153.189-72.9037 155.881-72.9037L159.799-72.9037C162.263-72.9037 163.823-71.2143 163.823-68.5384L163.823-2.0594C163.823 0.61526 162.197 2.28145 159.602 2.28145ZM175.012 2.43649L187.028 2.43649C196.038 2.43649 203.073-4.71677 203.073-13.528L203.073-57.0918C203.073-66.1015 196.038-73.1379 187.028-73.1379L175.012-73.1379L175.012-56.7064L184.729-56.7064C185.909-56.7064 186.642-55.9506 186.642-54.7699L186.642-15.9667C186.642-14.7872 185.909-14.0535 184.729-14.0535L175.012-14.0535Z"/>
  </g>
  <g id="Heavy-L" transform="matrix(1 0 0 1 2530.73 1556)">
   <path d="M31.054 1.1559L42.0938 1.1559L42.0938-13.406L32.8301-13.406C31.4877-13.406 30.6013-14.2981 30.6013-15.6348L30.6013-55.0743C30.6013-56.4166 31.4877-57.3445 32.8301-57.3445L42.0938-57.3445L42.0938-71.8618L31.054-71.8618C22.6416-71.8618 16.084-65.2985 16.084-56.8861L16.084-13.7337C16.084-5.49658 22.6416 1.1559 31.054 1.1559ZM56.5625 17.4923L60.6978 17.4923C72.9743 17.4923 80.9499 9.78207 80.9499-2.05499L80.9499-68.529C80.9499-80.4075 72.9967-88.1233 60.7427-88.1233L56.246-88.1233C44.3486-88.1233 36.5766-80.4075 36.5766-68.529L36.5766-2.05499C36.5766 9.78207 44.4616 17.4923 56.5625 17.4923ZM56.7234 2.18229C53.7316 2.18229 51.8865 0.235472 51.8865-2.94745L51.8865-67.6366C51.8865-70.8251 53.6242-72.8133 56.4068-72.8133L60.5819-72.8133C63.6965-72.8133 65.6701-70.8251 65.6701-67.6366L65.6701-2.94745C65.6701 0.235472 63.6797 2.18229 60.537 2.18229ZM74.8121-38.8701L137.096-38.8701L137.096-54.1801L74.8121-54.1801ZM74.8121-16.5201L137.096-16.5201L137.096-31.8301L74.8121-31.8301ZM151.21 17.4923L155.345 17.4923C167.446 17.4923 175.331 9.78207 175.331-2.05499L175.331-68.529C175.331-80.4075 167.559-88.1233 155.662-88.1233L151.165-88.1233C138.911-88.1233 130.958-80.4075 130.958-68.529L130.958-2.05499C130.958 9.78207 138.964 17.4923 151.21 17.4923ZM151.371 2.18229C148.228 2.18229 146.238 0.235472 146.238-2.94745L146.238-67.6366C146.238-70.8251 148.212-72.8133 151.326-72.8133L155.501-72.8133C158.289-72.8133 160.021-70.8251 160.021-67.6366L160.021-2.94745C160.021 0.235472 158.182 2.18229 155.185 2.18229ZM169.844 1.1559L180.854 1.1559C189.266 1.1559 195.824-5.49658 195.824-13.7337L195.824-56.8861C195.824-65.2985 189.266-71.8618 180.854-71.8618L169.844-71.8618L169.844-57.3445L179.078-57.3445C180.42-57.3445 181.307-56.4166 181.307-55.0743L181.307-15.6348C181.307-14.2981 180.42-13.406 179.078-13.406L169.844-13.406Z"/>
  </g>
  <g id="Bold-L" transform="matrix(1 0 0 1 2238.74 1556)">
   <path d="M29.7097-0.43455L39.505-0.43455L39.505-12.6068L30.8998-12.6068C29.3205-12.6068 28.227-13.7135 28.227-15.2796L28.227-55.3986C28.227-56.978 29.3205-58.1359 30.8998-58.1359L39.505-58.1359L39.505-70.2789L29.7097-70.2789C22.035-70.2789 16.084-64.3146 16.084-56.64L16.084-13.9798C16.084-6.45723 22.035-0.43455 29.7097-0.43455ZM52.9989 14.9556L57.2424 14.9556C68.6302 14.9556 75.8445 7.88213 75.8445-3.26846L75.8445-67.3001C75.8445-78.5152 68.6831-85.6019 57.3482-85.6019L52.5512-85.6019C41.6589-85.6019 34.7255-78.5152 34.7255-67.3001L34.7255-3.26846C34.7255 7.88213 41.8258 14.9556 52.9989 14.9556ZM53.1598 2.11151C49.6986 2.11151 47.5696-0.143874 47.5696-3.85253L47.5696-66.7161C47.5696-70.438 49.5449-72.7578 52.712-72.7578L57.1874-72.7578C60.7723-72.7578 63.0383-70.438 63.0383-66.7161L63.0383-3.85253C63.0383-0.143874 60.7327 2.11151 57.0815 2.11151ZM71.2336-39.6296L131.237-39.6296L131.237-52.4737L71.2336-52.4737ZM71.2336-18.2265L131.237-18.2265L131.237-31.0706L71.2336-31.0706ZM145.229 14.9556L149.472 14.9556C160.645 14.9556 167.746 7.88213 167.746-3.26846L167.746-67.3001C167.746-78.5152 160.812-85.6019 149.92-85.6019L145.123-85.6019C133.788-85.6019 126.627-78.5152 126.627-67.3001L126.627-3.26846C126.627 7.88213 133.879 14.9556 145.229 14.9556ZM145.389 2.11151C141.738 2.11151 139.433-0.143874 139.433-3.85253L139.433-66.7161C139.433-70.438 141.699-72.7578 145.284-72.7578L149.759-72.7578C152.939-72.7578 154.901-70.438 154.901-66.7161L154.901-3.85253C154.901-0.143874 152.786 2.11151 149.311 2.11151ZM163.004-0.43455L172.761-0.43455C180.436-0.43455 186.387-6.45723 186.387-13.9798L186.387-56.64C186.387-64.3146 180.436-70.2789 172.761-70.2789L163.004-70.2789L163.004-58.1359L171.571-58.1359C173.151-58.1359 174.244-56.978 174.244-55.3986L174.244-15.2796C174.244-13.7135 173.151-12.6068 171.571-12.6068L163.004-12.6068Z"/>
  </g>
  <g id="Semibold-L" transform="matrix(1 0 0 1 1945.28 1556)">
   <path d="M28.7829-1.53099L37.7203-1.53099L37.7203-12.0558L29.5692-12.0558C27.8264-12.0558 26.5902-13.3104 26.5902-15.0347L26.5902-55.6222C26.5902-57.365 27.8264-58.6815 29.5692-58.6815L37.7203-58.6815L37.7203-69.1877L28.7829-69.1877C21.6169-69.1877 16.084-63.6364 16.084-56.4703L16.084-14.1495C16.084-7.1195 21.6169-1.53099 28.7829-1.53099ZM50.5422 13.2069L54.8602 13.2069C65.6354 13.2069 72.3249 6.57232 72.3249-4.10502L72.3249-66.453C72.3249-77.2106 65.7094-83.8637 55.008-83.8637L50.0041-83.8637C39.8046-83.8637 33.4493-77.2106 33.4493-66.453L33.4493-4.10502C33.4493 6.57232 40.0087 13.2069 50.5422 13.2069ZM50.703 2.06272C46.9182 2.06272 44.5935-0.405393 44.5935-4.47649L44.5935-66.0815C44.5935-70.1711 46.7327-72.7195 50.1649-72.7195L54.8472-72.7195C58.7564-72.7195 61.224-70.1711 61.224-66.0815L61.224-4.47649C61.224-0.405393 58.701 2.06272 54.6993 2.06272ZM68.7666-40.1532L127.199-40.1532L127.199-51.2974L68.7666-51.2974ZM68.7666-19.4029L127.199-19.4029L127.199-30.5471L68.7666-30.5471ZM141.105 13.2069L145.423 13.2069C155.956 13.2069 162.516 6.57232 162.516-4.10502L162.516-66.453C162.516-77.2106 156.161-83.8637 145.961-83.8637L140.957-83.8637C130.256-83.8637 123.64-77.2106 123.64-66.453L123.64-4.10502C123.64 6.57232 130.373 13.2069 141.105 13.2069ZM141.266 2.06272C137.264 2.06272 134.741-0.405393 134.741-4.47649L134.741-66.0815C134.741-70.1711 137.209-72.7195 141.118-72.7195L145.8-72.7195C149.251-72.7195 151.372-70.1711 151.372-66.0815L151.372-4.47649C151.372-0.405393 149.065 2.06272 145.262 2.06272ZM158.288-1.53099L167.182-1.53099C174.348-1.53099 179.881-7.1195 179.881-14.1495L179.881-56.4703C179.881-63.6364 174.348-69.1877 167.182-69.1877L158.288-69.1877L158.288-58.6815L166.396-58.6815C168.139-58.6815 169.375-57.365 169.375-55.6222L169.375-15.0347C169.375-13.3104 168.139-12.0558 166.396-12.0558L158.288-12.0558Z"/>
  </g>
  <g id="Medium-L" transform="matrix(1 0 0 1 1651.04 1556)">
   <path d="M28.0803-2.36236L36.367-2.36236L36.367-11.638L28.5602-11.638C26.6935-11.638 25.3491-13.0048 25.3491-14.8491L25.3491-55.7918C25.3491-57.6585 26.6935-59.0952 28.5602-59.0952L36.367-59.0952L36.367-68.3603L28.0803-68.3603C21.2998-68.3603 16.084-63.1221 16.084-56.3416L16.084-14.2782C16.084-7.62167 21.2998-2.36236 28.0803-2.36236ZM48.6794 11.881L53.0539 11.881C63.3647 11.881 69.6561 5.57917 69.6561-4.73933L69.6561-65.8106C69.6561-76.2215 63.4545-82.5457 53.2336-82.5457L48.0727-82.5457C38.3987-82.5457 32.4817-76.2215 32.4817-65.8106L32.4817-4.73933C32.4817 5.57917 38.6308 11.881 48.6794 11.881ZM48.8403 2.02573C44.81 2.02573 42.337-0.603687 42.337-4.9496L42.337-65.6003C42.337-69.9687 44.6003-72.6905 48.2336-72.6905L53.0728-72.6905C57.2279-72.6905 59.8483-69.9687 59.8483-65.6003L59.8483-4.9496C59.8483-0.603687 57.1605 2.02573 52.8931 2.02573ZM66.896-40.5502L124.136-40.5502L124.136-50.4054L66.896-50.4054ZM66.896-20.2948L124.136-20.2948L124.136-30.1501L66.896-30.1501ZM137.978 11.881L142.353 11.881C152.401 11.881 158.55 5.57917 158.55-4.73933L158.55-65.8106C158.55-76.2215 152.634-82.5457 142.959-82.5457L137.799-82.5457C127.578-82.5457 121.376-76.2215 121.376-65.8106L121.376-4.73933C121.376 5.57917 127.715 11.881 137.978 11.881ZM138.139 2.02573C133.872 2.02573 131.184-0.603687 131.184-4.9496L131.184-65.6003C131.184-69.9687 133.804-72.6905 137.959-72.6905L142.799-72.6905C146.454-72.6905 148.695-69.9687 148.695-65.6003L148.695-4.9496C148.695-0.603687 146.245 2.02573 142.192 2.02573ZM154.713-2.36236L162.952-2.36236C169.732-2.36236 174.948-7.62167 174.948-14.2782L174.948-56.3416C174.948-63.1221 169.732-68.3603 162.952-68.3603L154.713-68.3603L154.713-59.0952L162.472-59.0952C164.339-59.0952 165.683-57.6585 165.683-55.7918L165.683-14.8491C165.683-13.0048 164.339-11.638 162.472-11.638L154.713-11.638Z"/>
  </g>
  <g id="Regular-L" transform="matrix(1 0 0 1 1357.55 1556)">
   <path d="M27.1637-3.44676L34.6019-3.44676L34.6019-11.0931L27.2441-11.0931C25.2158-11.0931 23.7303-12.6062 23.7303-14.6069L23.7303-56.0129C23.7303-58.0413 25.2158-59.6348 27.2441-59.6348L34.6019-59.6348L34.6019-67.2811L27.1637-67.2811C20.8862-67.2811 16.084-62.4512 16.084-56.1738L16.084-14.446C16.084-8.27666 20.8862-3.44676 27.1637-3.44676ZM46.2497 10.1515L50.6979 10.1515C60.4028 10.1515 66.1752 4.28375 66.1752-5.5667L66.1752-64.9727C66.1752-74.9312 60.5134-80.8266 50.9191-80.8266L45.5536-80.8266C36.5648-80.8266 31.2196-74.9312 31.2196-64.9727L31.2196-5.5667C31.2196 4.28375 36.8337 10.1515 46.2497 10.1515ZM46.4105 1.97747C42.0602 1.97747 39.3936-0.862332 39.3936-5.5667L39.3936-64.9727C39.3936-69.7047 41.8189-72.6526 45.7144-72.6526L50.7583-72.6526C55.2342-72.6526 58.054-69.7047 58.054-64.9727L58.054-5.5667C58.054-0.862332 55.1512 1.97747 50.537 1.97747ZM64.4562-41.068L120.142-41.068L120.142-49.242L64.4562-49.242ZM64.4562-21.4583L120.142-21.4583L120.142-29.6323L64.4562-29.6323ZM133.9 10.1515L138.348 10.1515C147.764 10.1515 153.378 4.28375 153.378-5.5667L153.378-64.9727C153.378-74.9312 148.033-80.8266 139.044-80.8266L133.679-80.8266C124.084-80.8266 118.423-74.9312 118.423-64.9727L118.423-5.5667C118.423 4.28375 124.248 10.1515 133.9 10.1515ZM134.061 1.97747C129.447 1.97747 126.544-0.862332 126.544-5.5667L126.544-64.9727C126.544-69.7047 129.364-72.6526 133.84-72.6526L138.883-72.6526C142.807-72.6526 145.204-69.7047 145.204-64.9727L145.204-5.5667C145.204-0.862332 142.565 1.97747 138.187 1.97747ZM150.049-3.44676L157.434-3.44676C163.712-3.44676 168.514-8.27666 168.514-14.446L168.514-56.1738C168.514-62.4512 163.712-67.2811 157.434-67.2811L150.049-67.2811L150.049-59.6348L157.354-59.6348C159.382-59.6348 160.867-58.0413 160.867-56.0129L160.867-14.6069C160.867-12.6062 159.382-11.0931 157.354-11.0931L150.049-11.0931Z"/>
  </g>
  <g id="Light-L" transform="matrix(1 0 0 1 1065.57 1556)">
   <path d="M26.1522-4.57279L32.6743-4.57279L32.6743-10.5587L26.2326-10.5587C23.8034-10.5587 22.0699-12.339 22.0699-14.7214L22.0699-55.8984C22.0699-58.3276 23.8034-60.1883 26.2326-60.1883L32.6743-60.1883L32.6743-66.1742L26.1522-66.1742C20.3709-66.1742 16.084-61.8405 16.084-56.0593L16.084-14.5606C16.084-8.90647 20.3709-4.57279 26.1522-4.57279ZM43.4251 8.58647L47.8351 8.58647C56.3567 8.58647 61.7283 3.38675 61.7283-4.93689L61.7283-65.6025C61.7283-74.0533 56.5437-79.2998 48.209-79.2998L42.748-79.2998C34.7708-79.2998 29.7882-74.0533 29.7882-65.6025L29.7882-4.93689C29.7882 3.38675 35.0588 8.58647 43.4251 8.58647ZM43.5859 2.26375C39.0638 2.26375 36.1109-0.537882 36.1109-4.93689L36.1109-65.6025C36.1109-70.0483 38.8225-72.9771 42.9089-72.9771L48.0482-72.9771C52.505-72.9771 55.4393-70.0483 55.4393-65.6025L55.4393-4.93689C55.4393-0.537882 52.3647 2.26375 47.6743 2.26375ZM59.9329-41.8505L115.199-41.8505L115.199-48.1732L59.9329-48.1732ZM59.9329-22.527L115.199-22.527L115.199-28.8498L59.9329-28.8498ZM127.296 8.58647L131.706 8.58647C140.073 8.58647 145.343 3.38675 145.343-4.93689L145.343-65.6025C145.343-74.0533 140.361-79.2998 132.383-79.2998L126.922-79.2998C118.588-79.2998 113.403-74.0533 113.403-65.6025L113.403-4.93689C113.403 3.38675 118.808 8.58647 127.296 8.58647ZM127.457 2.26375C122.767 2.26375 119.692-0.537882 119.692-4.93689L119.692-65.6025C119.692-70.0483 122.627-72.9771 127.083-72.9771L132.223-72.9771C136.356-72.9771 139.021-70.0483 139.021-65.6025L139.021-4.93689C139.021-0.537882 136.114 2.26375 131.546 2.26375ZM142.491-4.57279L148.979-4.57279C154.761-4.57279 159.048-8.90647 159.048-14.5606L159.048-56.0593C159.048-61.8405 154.761-66.1742 148.979-66.1742L142.491-66.1742L142.491-60.1883L148.899-60.1883C151.328-60.1883 153.062-58.3276 153.062-55.8984L153.062-14.7214C153.062-12.339 151.328-10.5587 148.899-10.5587L142.491-10.5587Z"/>
  </g>
  <g id="Thin-L" transform="matrix(1 0 0 1 775.116 1556)">
   <path d="M24.8144-6.06206L30.1249-6.06206L30.1249-9.85196L24.8948-9.85196C21.9356-9.85196 19.8739-11.9856 19.8739-14.8728L19.8739-55.747C19.8739-58.7062 21.9356-60.9203 24.8948-60.9203L30.1249-60.9203L30.1249-64.7102L24.8144-64.7102C19.6894-64.7102 16.084-61.0328 16.084-55.9078L16.084-14.712C16.084-9.73945 19.6894-6.06206 24.8144-6.06206ZM39.6893 6.51664L44.0488 6.51664C51.0055 6.51664 55.847 2.20038 55.847-4.10391L55.847-66.4355C55.847-72.8922 51.2934-77.2804 44.6247-77.2804L39.0375-77.2804C32.398-77.2804 27.8951-72.8922 27.8951-66.4355L27.8951-4.10391C27.8951 2.20038 32.7113 6.51664 39.6893 6.51664ZM39.8501 2.64238C35.1008 2.64238 31.7693-0.108771 31.7693-4.10391L31.7693-66.4355C31.7693-70.5026 34.8596-73.4062 39.1983-73.4062L44.4639-73.4062C48.8954-73.4062 51.9811-70.5026 51.9811-66.4355L51.9811-4.10391C51.9811-0.108771 48.6794 2.64238 43.888 2.64238ZM53.9506-42.8854L108.661-42.8854L108.661-46.7597L53.9506-46.7597ZM53.9506-23.9406L108.661-23.9406L108.661-27.8149L53.9506-27.8149ZM118.563 6.51664L122.922 6.51664C129.9 6.51664 134.717 2.20038 134.717-4.10391L134.717-66.4355C134.717-72.8922 130.214-77.2804 123.574-77.2804L117.987-77.2804C111.318-77.2804 106.765-72.8922 106.765-66.4355L106.765-4.10391C106.765 2.20038 111.615 6.51664 118.563 6.51664ZM118.724 2.64238C113.932 2.64238 110.63-0.108771 110.63-4.10391L110.63-66.4355C110.63-70.5026 113.716-73.4062 118.148-73.4062L123.413-73.4062C127.824-73.4062 130.842-70.5026 130.842-66.4355L130.842-4.10391C130.842-0.108771 127.583 2.64238 122.761 2.64238ZM132.495-6.06206L137.797-6.06206C142.922-6.06206 146.528-9.73945 146.528-14.712L146.528-55.9078C146.528-61.0328 142.922-64.7102 137.797-64.7102L132.495-64.7102L132.495-60.9203L137.717-60.9203C140.676-60.9203 142.738-58.7062 142.738-55.747L142.738-14.8728C142.738-11.9856 140.676-9.85196 137.717-9.85196L132.495-9.85196Z"/>
  </g>
  <g id="Ultralight-L" transform="matrix(1 0 0 1 481.612 1556)">
   <path d="M24.1291-6.82485L28.8191-6.82485L28.8191-9.48995L24.2095-9.48995C20.9788-9.48995 18.7491-11.8046 18.7491-14.9504L18.7491-55.6694C18.7491-58.9001 20.9788-61.2952 24.2095-61.2952L28.8191-61.2952L28.8191-63.9603L24.1291-63.9603C19.3403-63.9603 16.084-60.6191 16.084-55.8302L16.084-14.7896C16.084-10.1661 19.3403-6.82485 24.1291-6.82485ZM37.7758 5.45649L42.1095 5.45649C48.2646 5.45649 52.8346 1.59273 52.8346-3.67726L52.8346-66.8621C52.8346-72.2975 48.6042-76.2461 42.7888-76.2461L37.137-76.2461C31.1827-76.2461 26.9254-72.2975 26.9254-66.8621L26.9254-3.67726C26.9254 1.59273 31.5089 5.45649 37.7758 5.45649ZM37.9367 2.83631C33.071 2.83631 29.5456 0.111017 29.5456-3.67726L29.5456-66.8621C29.5456-70.7353 32.8298-73.626 37.2978-73.626L42.628-73.626C47.0466-73.626 50.2099-70.7353 50.2099-66.8621L50.2099-3.67726C50.2099 0.111017 46.7918 2.83631 41.9487 2.83631ZM50.8865-43.4155L105.312-43.4155L105.312-46.0356L50.8865-46.0356ZM50.8865-24.6646L105.312-24.6646L105.312-27.2848L50.8865-27.2848ZM114.089 5.45649L118.423 5.45649C124.69 5.45649 129.274 1.59273 129.274-3.67726L129.274-66.8621C129.274-72.2975 125.016-76.2461 119.062-76.2461L113.41-76.2461C107.595-76.2461 103.364-72.2975 103.364-66.8621L103.364-3.67726C103.364 1.59273 107.93 5.45649 114.089 5.45649ZM114.25 2.83631C109.407 2.83631 105.989 0.111017 105.989-3.67726L105.989-66.8621C105.989-70.7353 109.152-73.626 113.571-73.626L118.901-73.626C123.454-73.626 126.653-70.7353 126.653-66.8621L126.653-3.67726C126.653 0.111017 123.213 2.83631 118.262 2.83631ZM127.375-6.82485L132.07-6.82485C136.859-6.82485 140.115-10.1661 140.115-14.7896L140.115-55.8302C140.115-60.6191 136.859-63.9603 132.07-63.9603L127.375-63.9603L127.375-61.2952L131.989-61.2952C135.22-61.2952 137.45-58.9001 137.45-55.6694L137.45-14.9504C137.45-11.8046 135.22-9.48995 131.989-9.48995L127.375-9.48995Z"/>
  </g>
  <g id="Black-M" transform="matrix(1 0 0 1 2846.03 1126)">
   <path d="M25.6783-5.10006L35.7376-5.10006L35.7376-19.3076L27.9103-19.3076C27.0803-19.3076 26.6113-19.7762 26.6113-20.6065L26.6113-50.0912C26.6113-50.9213 27.0803-51.3951 27.9103-51.3951L35.7376-51.3951L35.7376-65.5456L25.6783-65.5456C18.2521-65.5456 12.4609-59.7547 12.4609-52.3284L12.4609-18.2552C12.4609-11.0051 18.2521-5.10006 25.6783-5.10006ZM48.0659 8.78919L51.0987 8.78919C61.5051 8.78919 68.6599 2.11308 68.6599-7.54075L68.6599-63.0376C68.6599-72.6964 61.504-79.3722 51.0964-79.3722L48.0187-79.3722C37.6773-79.3722 30.5544-72.6964 30.5544-63.0376L30.5544-7.54075C30.5544 2.11308 37.6927 8.78919 48.0659 8.78919ZM48.1905-6.04419C46.5-6.04419 45.3877-7.0887 45.3877-8.68268L45.3877-61.8957C45.3877-63.4894 46.4843-64.5388 48.1433-64.5388L50.9718-64.5388C52.6912-64.5388 53.832-63.4894 53.832-61.8957L53.832-8.68268C53.832-7.0887 52.692-6.04419 50.9741-6.04419ZM61.6482-37.2069L113.09-37.2069L113.09-52.0403L61.6482-52.0403ZM61.6482-18.6056L113.09-18.6056L113.09-33.439L61.6482-33.439ZM123.639 8.78919L126.672 8.78919C137.045 8.78919 144.184 2.11308 144.184-7.54075L144.184-63.0376C144.184-72.6964 137.061-79.3722 126.719-79.3722L123.642-79.3722C113.234-79.3722 106.078-72.6964 106.078-63.0376L106.078-7.54075C106.078 2.11308 113.238 8.78919 123.639 8.78919ZM123.764-6.04419C122.046-6.04419 120.906-7.0887 120.906-8.68268L120.906-61.8957C120.906-63.4894 122.047-64.5388 123.766-64.5388L126.595-64.5388C128.253-64.5388 129.35-63.4894 129.35-61.8957L129.35-8.68268C129.35-7.0887 128.238-6.04419 126.548-6.04419ZM139.006-5.10006L149.06-5.10006C156.486-5.10006 162.277-11.0051 162.277-18.2552L162.277-52.3284C162.277-59.7547 156.486-65.5456 149.06-65.5456L139.006-65.5456L139.006-51.3951L146.828-51.3951C147.658-51.3951 148.127-50.9213 148.127-50.0912L148.127-20.6065C148.127-19.7762 147.658-19.3076 146.828-19.3076L139.006-19.3076Z"/>
  </g>
  <g id="Heavy-M" transform="matrix(1 0 0 1 2552.43 1126)">
   <path d="M24.7209-6.24805L33.8894-6.24805L33.8894-18.7239L26.4408-18.7239C25.4897-18.7239 24.8932-19.3227 24.8932-20.2715L24.8932-50.3993C24.8932-51.3504 25.4897-51.9679 26.4408-51.9679L33.8894-51.9679L33.8894-64.4001L24.7209-64.4001C17.8327-64.4001 12.4609-59.0261 12.4609-52.1379L12.4609-18.4457C12.4609-11.7094 17.8327-6.24805 24.7209-6.24805ZM45.5584 6.90866L48.694 6.90866C58.578 6.90866 65.1536 0.64543 65.1536-8.73648L65.1536-61.8284C65.1536-71.2313 58.5871-77.4968 48.7122-77.4968L45.3926-77.4968C35.7122-77.4968 29.2442-71.2313 29.2442-61.8284L29.2442-8.73648C29.2442 0.64543 35.7705 6.90866 45.5584 6.90866ZM45.683-6.16753C43.6192-6.16753 42.3204-7.4899 42.3204-9.60891L42.3204-60.956C42.3204-63.0773 43.5631-64.4206 45.5172-64.4206L48.5876-64.4206C50.7221-64.4206 52.0938-63.0773 52.0938-60.956L52.0938-9.60891C52.0938-7.4899 50.7152-6.16753 48.5694-6.16753ZM59.4926-37.7025L109.032-37.7025L109.032-50.7787L59.4926-50.7787ZM59.4926-19.8672L109.032-19.8672L109.032-32.9434L59.4926-32.9434ZM119.831 6.90866L122.966 6.90866C132.754 6.90866 139.28 0.64543 139.28-8.73648L139.28-61.8284C139.28-71.2313 132.812-77.4968 123.132-77.4968L119.813-77.4968C109.938-77.4968 103.371-71.2313 103.371-61.8284L103.371-8.73648C103.371 0.64543 109.963 6.90866 119.831 6.90866ZM119.955-6.16753C117.809-6.16753 116.431-7.4899 116.431-9.60891L116.431-60.956C116.431-63.0773 117.803-64.4206 119.937-64.4206L123.008-64.4206C124.964-64.4206 126.204-63.0773 126.204-60.956L126.204-9.60891C126.204-7.4899 124.908-6.16753 122.842-6.16753ZM134.652-6.24805L143.804-6.24805C150.692-6.24805 156.064-11.7094 156.064-18.4457L156.064-52.1379C156.064-59.0261 150.692-64.4001 143.804-64.4001L134.652-64.4001L134.652-51.9679L142.084-51.9679C143.035-51.9679 143.631-51.3504 143.631-50.3993L143.631-20.2715C143.631-19.3227 143.035-18.7239 142.084-18.7239L134.652-18.7239Z"/>
  </g>
  <g id="Bold-M" transform="matrix(1 0 0 1 2259.19 1126)">
   <path d="M23.6498-7.53223L31.8218-7.53223L31.8218-18.0711L24.7969-18.0711C23.7104-18.0711 22.9712-18.8154 22.9712-19.8968L22.9712-50.7439C22.9712-51.8305 23.7104-52.6085 24.7969-52.6085L31.8218-52.6085L31.8218-63.1188L23.6498-63.1188C17.3636-63.1188 12.4609-58.211 12.4609-51.9248L12.4609-18.6588C12.4609-12.4971 17.3636-7.53223 23.6498-7.53223ZM42.7535 4.80502L46.0039 4.80502C55.3037 4.80502 61.2313-0.996343 61.2313-10.0741L61.2313-60.4758C61.2313-69.5924 55.3242-75.3989 46.045-75.3989L42.4548-75.3989C33.514-75.3989 27.7786-69.5924 27.7786-60.4758L27.7786-10.0741C27.7786-0.996343 33.6204 4.80502 42.7535 4.80502ZM42.8781-6.30551C40.3966-6.30551 38.8891-7.9387 38.8891-10.645L38.8891-59.9048C38.8891-62.6163 40.2954-64.2884 42.5795-64.2884L45.9204-64.2884C48.5193-64.2884 50.1494-62.6163 50.1494-59.9048L50.1494-10.645C50.1494-7.9387 48.5039-6.30551 45.8793-6.30551ZM57.0813-38.2569L104.493-38.2569L104.493-49.3674L57.0813-49.3674ZM57.0813-21.2785L104.493-21.2785L104.493-32.389L57.0813-32.389ZM115.57 4.80502L118.821 4.80502C127.954 4.80502 133.795-0.996343 133.795-10.0741L133.795-60.4758C133.795-69.5924 128.06-75.3989 119.119-75.3989L115.529-75.3989C106.25-75.3989 100.343-69.5924 100.343-60.4758L100.343-10.0741C100.343-0.996343 106.299 4.80502 115.57 4.80502ZM115.695-6.30551C113.07-6.30551 111.425-7.9387 111.425-10.645L111.425-59.9048C111.425-62.6163 113.055-64.2884 115.654-64.2884L118.995-64.2884C121.284-64.2884 122.685-62.6163 122.685-59.9048L122.685-10.645C122.685-7.9387 121.183-6.30551 118.696-6.30551ZM129.781-7.53223L137.924-7.53223C144.21-7.53223 149.113-12.4971 149.113-18.6588L149.113-51.9248C149.113-58.211 144.21-63.1188 137.924-63.1188L129.781-63.1188L129.781-52.6085L136.777-52.6085C137.864-52.6085 138.603-51.8305 138.603-50.7439L138.603-19.8968C138.603-18.8154 137.864-18.0711 136.777-18.0711L129.781-18.0711Z"/>
  </g>
  <g id="Semibold-M" transform="matrix(1 0 0 1 1964.88 1126)">
   <path d="M22.9114-8.41755L30.3965-8.41755L30.3965-17.621L23.6637-17.621C22.4838-17.621 21.6462-18.4656 21.6462-19.6384L21.6462-50.9815C21.6462-52.1614 22.4838-53.0502 23.6637-53.0502L30.3965-53.0502L30.3965-62.2355L22.9114-62.2355C17.0402-62.2355 12.4609-57.6491 12.4609-51.7779L12.4609-18.8057C12.4609-13.0402 17.0402-8.41755 22.9114-8.41755ZM40.8198 3.35478L44.1494 3.35478C53.0464 3.35478 58.5273-2.12817 58.5273-10.9962L58.5273-59.5433C58.5273-68.4625 53.0748-73.9526 44.2063-73.9526L40.4296-73.9526C31.9985-73.9526 26.7682-68.4625 26.7682-59.5433L26.7682-10.9962C26.7682-2.12817 32.138 3.35478 40.8198 3.35478ZM40.9444-6.40063C38.175-6.40063 36.5236-8.2481 36.5236-11.3593L36.5236-59.1801C36.5236-62.2985 38.0426-64.1972 40.5542-64.1972L44.0817-64.1972C47.0008-64.1972 48.8089-62.2985 48.8089-59.1801L48.8089-11.3593C48.8089-8.2481 46.9794-6.40063 44.0248-6.40063ZM55.419-38.6391L101.363-38.6391L101.363-48.3945L55.419-48.3945ZM55.419-22.2514L101.363-22.2514L101.363-32.0068L55.419-32.0068ZM112.633 3.35478L115.963 3.35478C124.644 3.35478 130.014-2.12817 130.014-10.9962L130.014-59.5433C130.014-68.4625 124.784-73.9526 116.353-73.9526L112.576-73.9526C103.708-73.9526 98.2551-68.4625 98.2551-59.5433L98.2551-10.9962C98.2551-2.12817 103.773 3.35478 112.633 3.35478ZM112.758-6.40063C109.803-6.40063 107.973-8.2481 107.973-11.3593L107.973-59.1801C107.973-62.2985 109.782-64.1972 112.701-64.1972L116.228-64.1972C118.747-64.1972 120.259-62.2985 120.259-59.1801L120.259-11.3593C120.259-8.2481 118.614-6.40063 115.838-6.40063ZM126.423-8.41755L133.871-8.41755C139.742-8.41755 144.321-13.0402 144.321-18.8057L144.321-51.7779C144.321-57.6491 139.742-62.2355 133.871-62.2355L126.423-62.2355L126.423-53.0502L133.119-53.0502C134.299-53.0502 135.136-52.1614 135.136-50.9815L135.136-19.6384C135.136-18.4656 134.299-17.621 133.119-17.621L126.423-17.621Z"/>
  </g>
  <g id="Medium-M" transform="matrix(1 0 0 1 1669.98 1126)">
   <path d="M22.3515-9.08882L29.3157-9.08882L29.3157-17.2797L22.8044-17.2797C21.5537-17.2797 20.6415-18.2004 20.6415-19.4425L20.6415-51.1616C20.6415-52.4123 21.5537-53.3851 22.8044-53.3851L29.3157-53.3851L29.3157-61.5657L22.3515-61.5657C16.7949-61.5657 12.4609-57.2231 12.4609-51.6665L12.4609-18.9171C12.4609-13.452 16.7949-9.08882 22.3515-9.08882ZM39.3536 2.25515L42.7433 2.25515C51.3348 2.25515 56.477-2.98637 56.477-11.6954L56.477-58.8362C56.477-67.6058 51.3692-72.8559 42.8121-72.8559L38.894-72.8559C30.8494-72.8559 26.0021-67.6058 26.0021-58.8362L26.0021-11.6954C26.0021-2.98637 31.0141 2.25515 39.3536 2.25515ZM39.4782-6.47276C36.4905-6.47276 34.73-8.4827 34.73-11.9009L34.73-58.6306C34.73-62.0575 36.3344-64.128 39.0186-64.128L42.6875-64.128C45.8493-64.128 47.7925-62.0575 47.7925-58.6306L47.7925-11.9009C47.7925-8.4827 45.8235-6.47276 42.6187-6.47276ZM54.1585-38.9289L98.9906-38.9289L98.9906-47.6568L54.1585-47.6568ZM54.1585-22.9891L98.9906-22.9891L98.9906-31.717L54.1585-31.717ZM110.406 2.25515L113.795 2.25515C122.135 2.25515 127.147-2.98637 127.147-11.6954L127.147-58.8362C127.147-67.6058 122.3-72.8559 114.255-72.8559L110.337-72.8559C101.78-72.8559 96.6721-67.6058 96.6721-58.8362L96.6721-11.6954C96.6721-2.98637 101.858 2.25515 110.406 2.25515ZM110.53-6.47276C107.326-6.47276 105.357-8.4827 105.357-11.9009L105.357-58.6306C105.357-62.0575 107.3-64.128 110.462-64.128L114.131-64.128C116.823-64.128 118.419-62.0575 118.419-58.6306L118.419-11.9009C118.419-8.4827 116.667-6.47276 113.671-6.47276ZM123.877-9.08882L130.798-9.08882C136.354-9.08882 140.688-13.452 140.688-18.9171L140.688-51.6665C140.688-57.2231 136.354-61.5657 130.798-61.5657L123.877-61.5657L123.877-53.3851L130.345-53.3851C131.595-53.3851 132.508-52.4123 132.508-51.1616L132.508-19.4425C132.508-18.2004 131.595-17.2797 130.345-17.2797L123.877-17.2797Z"/>
  </g>
  <g id="Regular-M" transform="matrix(1 0 0 1 1375.64 1126)">
   <path d="M21.6213-9.96441L27.906-9.96441L27.906-16.8346L21.6836-16.8346C20.3405-16.8346 19.3311-17.8545 19.3311-19.187L19.3311-51.3966C19.3311-52.7396 20.3405-53.8219 21.6836-53.8219L27.906-53.8219L27.906-60.692L21.6213-60.692C16.4751-60.692 12.4609-56.6673 12.4609-51.5212L12.4609-19.0624C12.4609-13.9891 16.4751-9.96441 21.6213-9.96441ZM37.4412 0.82085L40.9091 0.82085C49.1022 0.82085 53.8027-4.10576 53.8027-12.6074L53.8027-57.9139C53.8027-66.4884 49.1444-71.4255 40.9935-71.4255L36.891-71.4255C29.3506-71.4255 25.0028-66.4884 25.0028-57.9139L25.0028-12.6074C25.0028-4.10576 29.5481 0.82085 37.4412 0.82085ZM37.5658-6.56683C34.2933-6.56683 32.3905-8.7887 32.3905-12.6074L32.3905-57.9139C32.3905-61.7431 34.1064-64.0379 37.0156-64.0379L40.8689-64.0379C44.3475-64.0379 46.4668-61.7431 46.4668-57.9139L46.4668-12.6074C46.4668-8.7887 44.3158-6.56683 40.7845-6.56683ZM52.5144-39.3069L95.8956-39.3069L95.8956-46.6946L52.5144-46.6946ZM52.5144-23.9513L95.8956-23.9513L95.8956-31.339L52.5144-31.339ZM107.501 0.82085L110.969 0.82085C118.862 0.82085 123.407-4.10576 123.407-12.6074L123.407-57.9139C123.407-66.4884 119.059-71.4255 111.519-71.4255L107.416-71.4255C99.2656-71.4255 94.6073-66.4884 94.6073-57.9139L94.6073-12.6074C94.6073-4.10576 99.3596 0.82085 107.501 0.82085ZM107.626-6.56683C104.094-6.56683 101.943-8.7887 101.943-12.6074L101.943-57.9139C101.943-61.7431 104.063-64.0379 107.541-64.0379L111.394-64.0379C114.314-64.0379 116.02-61.7431 116.02-57.9139L116.02-12.6074C116.02-8.7887 114.127-6.56683 110.844-6.56683ZM120.556-9.96441L126.789-9.96441C131.935-9.96441 135.949-13.9891 135.949-19.0624L135.949-51.5212C135.949-56.6673 131.935-60.692 126.789-60.692L120.556-60.692L120.556-53.8219L126.726-53.8219C128.07-53.8219 129.079-52.7396 129.079-51.3966L129.079-19.187C129.079-17.8545 128.07-16.8346 126.726-16.8346L120.556-16.8346Z"/>
  </g>
  <g id="Light-M" transform="matrix(1 0 0 1 1083.17 1126)">
   <path d="M20.7144-10.974L26.1778-10.974L26.1778-16.3554L20.7767-16.3554C19.0743-16.3554 17.8424-17.615 17.8424-19.2897L17.8424-51.2939C17.8424-52.9963 19.0743-54.3181 20.7767-54.3181L26.1778-54.3181L26.1778-59.6996L20.7144-59.6996C16.0131-59.6996 12.4609-56.1198 12.4609-51.4185L12.4609-19.1651C12.4609-14.5538 16.0131-10.974 20.7144-10.974ZM34.9088-0.582247L38.3425-0.582247C45.4747-0.582247 49.8159-4.90998 49.8159-12.0427L49.8159-58.4786C49.8159-65.7013 45.5854-70.0567 38.5638-70.0567L34.3757-70.0567C27.7422-70.0567 23.7195-65.7013 23.7195-58.4786L23.7195-12.0427C23.7195-4.90998 27.9567-0.582247 34.9088-0.582247ZM35.0334-6.31017C31.6069-6.31017 29.4474-8.49781 29.4474-12.0427L29.4474-58.4786C29.4474-62.0511 31.42-64.3287 34.5003-64.3287L38.4392-64.3287C41.9006-64.3287 44.1226-62.0511 44.1226-58.4786L44.1226-12.0427C44.1226-8.49781 41.8176-6.31017 38.2179-6.31017ZM48.4592-40.0085L91.4639-40.0085L91.4639-45.7364L48.4592-45.7364ZM48.4592-24.9095L91.4639-24.9095L91.4639-30.6374L48.4592-30.6374ZM101.581-0.582247L105.014-0.582247C111.966-0.582247 116.204-4.90998 116.204-12.0427L116.204-58.4786C116.204-65.7013 112.181-70.0567 105.547-70.0567L101.359-70.0567C94.3376-70.0567 90.1071-65.7013 90.1071-58.4786L90.1071-12.0427C90.1071-4.90998 94.4829-0.582247 101.581-0.582247ZM101.705-6.31017C98.1054-6.31017 95.8004-8.49781 95.8004-12.0427L95.8004-58.4786C95.8004-62.0511 98.0224-64.3287 101.484-64.3287L105.423-64.3287C108.531-64.3287 110.476-62.0511 110.476-58.4786L110.476-12.0427C110.476-8.49781 108.344-6.31017 104.89-6.31017ZM113.78-10.974L119.209-10.974C123.91-10.974 127.462-14.5538 127.462-19.1651L127.462-51.4185C127.462-56.1198 123.91-59.6996 119.209-59.6996L113.78-59.6996L113.78-54.3181L119.146-54.3181C120.849-54.3181 122.081-52.9963 122.081-51.2939L122.081-19.2897C122.081-17.615 120.849-16.3554 119.146-16.3554L113.78-16.3554Z"/>
  </g>
  <g id="Thin-M" transform="matrix(1 0 0 1 792.073 1126)">
   <path d="M19.515-12.3092L23.8921-12.3092L23.8921-15.7218L19.5773-15.7218C17.3996-15.7218 15.8736-17.2982 15.8736-19.4255L15.8736-51.1581C15.8736-53.3357 17.3996-54.9744 19.5773-54.9744L23.8921-54.9744L23.8921-58.387L19.515-58.387C15.4021-58.387 12.4609-55.3956 12.4609-51.2827L12.4609-19.3009C12.4609-15.3006 15.4021-12.3092 19.515-12.3092ZM31.5594-2.43796L34.9479-2.43796C40.677-2.43796 44.543-5.97361 44.543-11.2959L44.543-59.2254C44.543-64.6603 40.8782-68.2462 35.3503-68.2462L31.049-68.2462C25.6149-68.2462 22.0222-64.6603 22.0222-59.2254L22.0222-11.2959C22.0222-5.97361 25.8521-2.43796 31.5594-2.43796ZM31.684-5.97071C28.0539-5.97071 25.555-8.11309 25.555-11.2959L25.555-59.2254C25.555-62.4585 27.867-64.7135 31.1736-64.7135L35.2256-64.7135C38.6644-64.7135 41.0222-62.4585 41.0222-59.2254L41.0222-11.2959C41.0222-8.11309 38.5135-5.97071 34.8233-5.97071ZM43.0957-40.9363L85.6025-40.9363L85.6025-44.4691L43.0957-44.4691ZM43.0957-26.1768L85.6025-26.1768L85.6025-29.7096L43.0957-29.7096ZM93.7503-2.43796L97.1388-2.43796C102.846-2.43796 106.676-5.97361 106.676-11.2959L106.676-59.2254C106.676-64.6603 103.083-68.2462 97.6493-68.2462L93.348-68.2462C87.82-68.2462 84.1553-64.6603 84.1553-59.2254L84.1553-11.2959C84.1553-5.97361 88.0332-2.43796 93.7503-2.43796ZM93.8749-5.97071C90.1847-5.97071 87.676-8.11309 87.676-11.2959L87.676-59.2254C87.676-62.4585 90.0338-64.7135 93.4726-64.7135L97.5247-64.7135C100.882-64.7135 103.143-62.4585 103.143-59.2254L103.143-11.2959C103.143-8.11309 100.695-5.97071 97.0142-5.97071ZM104.818-12.3092L109.183-12.3092C113.296-12.3092 116.237-15.3006 116.237-19.3009L116.237-51.2827C116.237-55.3956 113.296-58.387 109.183-58.387L104.818-58.387L104.818-54.9744L109.121-54.9744C111.299-54.9744 112.825-53.3357 112.825-51.1581L112.825-19.4255C112.825-17.2982 111.299-15.7218 109.121-15.7218L104.818-15.7218Z"/>
  </g>
  <g id="Ultralight-M" transform="matrix(1 0 0 1 498.237 1126)">
   <path d="M18.9006-12.993L22.7214-12.993L22.7214-15.3972L18.9629-15.3972C16.5419-15.3972 14.8651-17.1359 14.8651-19.495L14.8651-51.0886C14.8651-53.5096 16.5419-55.3105 18.9629-55.3105L22.7214-55.3105L22.7214-57.7147L18.9006-57.7147C15.0891-57.7147 12.4609-55.0247 12.4609-51.2132L12.4609-19.3704C12.4609-15.6831 15.0891-12.993 18.9006-12.993ZM29.8439-3.38844L33.2092-3.38844C38.2197-3.38844 41.8422-6.5184 41.8422-10.9134L41.8422-59.6079C41.8422-64.1271 38.4672-67.3189 33.7043-67.3189L29.3451-67.3189C24.5253-67.3189 21.1529-64.1271 21.1529-59.6079L21.1529-10.9134C21.1529-6.5184 24.7741-3.38844 29.8439-3.38844ZM29.9685-5.79684C26.234-5.79684 23.5613-7.91604 23.5613-10.9134L23.5613-59.6079C23.5613-62.6671 26.0471-64.9105 29.4697-64.9105L33.5797-64.9105C37.0069-64.9105 39.4342-62.6671 39.4342-59.6079L39.4342-10.9134C39.4342-7.91604 36.8212-5.79684 33.0846-5.79684ZM40.3486-41.4116L82.6004-41.4116L82.6004-43.82L40.3486-43.82ZM40.3486-26.8259L82.6004-26.8259L82.6004-29.2343L40.3486-29.2343ZM89.7397-3.38844L93.105-3.38844C98.1749-3.38844 101.796-6.5184 101.796-10.9134L101.796-59.6079C101.796-64.1271 98.4237-67.3189 93.6039-67.3189L89.2447-67.3189C84.4817-67.3189 81.1068-64.1271 81.1068-59.6079L81.1068-10.9134C81.1068-6.5184 84.7297-3.38844 89.7397-3.38844ZM89.8644-5.79684C86.1278-5.79684 83.5148-7.91604 83.5148-10.9134L83.5148-59.6079C83.5148-62.6671 85.9421-64.9105 89.3693-64.9105L93.4793-64.9105C96.9637-64.9105 99.3877-62.6671 99.3877-59.6079L99.3877-10.9134C99.3877-7.91604 96.7768-5.79684 92.9804-5.79684ZM100.228-12.993L104.048-12.993C107.86-12.993 110.488-15.6831 110.488-19.3704L110.488-51.2132C110.488-55.0247 107.86-57.7147 104.048-57.7147L100.228-57.7147L100.228-55.3105L103.986-55.3105C106.407-55.3105 108.084-53.5096 108.084-51.0886L108.084-19.495C108.084-17.1359 106.407-15.3972 103.986-15.3972L100.228-15.3972Z"/>
  </g>
  <g id="Black-S" transform="matrix(1 0 0 1 2864.23 696)">
   <path d="M20.3613-11.3281L28.4668-11.3281L28.4668-22.9004L22.2656-22.9004C21.6309-22.9004 21.2891-23.2422 21.2891-23.877L21.2891-46.7773C21.2891-47.4121 21.6309-47.7539 22.2656-47.7539L28.4668-47.7539L28.4668-59.2773L20.3613-59.2773C14.4043-59.2773 9.76562-54.6387 9.76562-48.6816L9.76562-21.875C9.76562-16.0645 14.4043-11.3281 20.3613-11.3281ZM38.2812-0.244141L40.625-0.244141C48.877-0.244141 54.6387-5.56641 54.6387-13.1348L54.6387-57.4219C54.6387-64.9902 48.877-70.3125 40.625-70.3125L38.2812-70.3125C30.0293-70.3125 24.2676-64.9902 24.2676-57.4219L24.2676-13.1348C24.2676-5.56641 30.0293-0.244141 38.2812-0.244141ZM38.3789-12.3047C37.1582-12.3047 36.3281-13.0371 36.3281-14.1113L36.3281-56.4453C36.3281-57.5195 37.1582-58.252 38.3789-58.252L40.5273-58.252C41.748-58.252 42.5781-57.5195 42.5781-56.4453L42.5781-14.1113C42.5781-13.0371 41.748-12.3047 40.5273-12.3047ZM48.7305-36.6699L89.5996-36.6699L89.5996-48.7305L48.7305-48.7305ZM48.7305-21.875L89.5996-21.875L89.5996-33.9355L48.7305-33.9355ZM97.7051-0.244141L100.049-0.244141C108.301-0.244141 114.062-5.56641 114.062-13.1348L114.062-57.4219C114.062-64.9902 108.301-70.3125 100.049-70.3125L97.7051-70.3125C89.4531-70.3125 83.6914-64.9902 83.6914-57.4219L83.6914-13.1348C83.6914-5.56641 89.4531-0.244141 97.7051-0.244141ZM97.8027-12.3047C96.582-12.3047 95.752-13.0371 95.752-14.1113L95.752-56.4453C95.752-57.5195 96.582-58.252 97.8027-58.252L99.9512-58.252C101.172-58.252 102.002-57.5195 102.002-56.4453L102.002-14.1113C102.002-13.0371 101.172-12.3047 99.9512-12.3047ZM109.863-11.3281L117.969-11.3281C123.926-11.3281 128.564-16.0645 128.564-21.875L128.564-48.6816C128.564-54.6387 123.926-59.2773 117.969-59.2773L109.863-59.2773L109.863-47.7539L116.064-47.7539C116.699-47.7539 117.041-47.4121 117.041-46.7773L117.041-23.877C117.041-23.2422 116.699-22.9004 116.064-22.9004L109.863-22.9004Z"/>
  </g>
  <g id="Heavy-S" transform="matrix(1 0 0 1 2569.64 696)">
   <path d="M19.6583-12.1809L27.1069-12.1809L27.1069-22.4625L21.1247-22.4625C20.4323-22.4625 20.0098-22.8849 20.0098-23.5773L20.0098-47.0539C20.0098-47.7463 20.4323-48.1803 21.1247-48.1803L27.1069-48.1803L27.1069-58.4245L19.6583-58.4245C14.1047-58.4245 9.76562-54.0855 9.76562-48.5318L9.76562-22.0248C9.76562-16.5946 14.1047-12.1809 19.6583-12.1809ZM36.4604-1.67317L38.8963-1.67317C46.8371-1.67317 52.1494-6.71885 52.1494-14.2296L52.1494-56.3155C52.1494-63.8378 46.8371-68.8835 38.8963-68.8835L36.3567-68.8835C28.5542-68.8835 23.311-63.8378 23.311-56.3155L23.311-14.2296C23.311-6.71885 28.5887-1.67317 36.4604-1.67317ZM36.558-12.443C35.0377-12.443 34.0809-13.4174 34.0809-14.9757L34.0809-55.5695C34.0809-57.1277 35.0031-58.1137 36.4543-58.1137L38.7987-58.1137C40.3766-58.1137 41.3911-57.1277 41.3911-55.5695L41.3911-14.9757C41.3911-13.4174 40.3766-12.443 38.7987-12.443ZM47.4052-37.0041L86.6954-37.0041L86.6954-47.7739L47.4052-47.7739ZM47.4052-22.8315L86.6954-22.8315L86.6954-33.6013L47.4052-33.6013ZM95.2043-1.67317L97.6402-1.67317C105.512-1.67317 110.79-6.71885 110.79-14.2296L110.79-56.3155C110.79-63.8378 105.546-68.8835 97.7439-68.8835L95.2043-68.8835C87.2635-68.8835 81.9512-63.8378 81.9512-56.3155L81.9512-14.2296C81.9512-6.71885 87.275-1.67317 95.2043-1.67317ZM95.3019-12.443C93.724-12.443 92.7095-13.4174 92.7095-14.9757L92.7095-55.5695C92.7095-57.1277 93.724-58.1137 95.3019-58.1137L97.6463-58.1137C99.0975-58.1137 100.02-57.1277 100.02-55.5695L100.02-14.9757C100.02-13.4174 99.0629-12.443 97.5426-12.443ZM107.005-12.1809L114.442-12.1809C119.996-12.1809 124.335-16.5946 124.335-22.0248L124.335-48.5318C124.335-54.0855 119.996-58.4245 114.442-58.4245L107.005-58.4245L107.005-48.1803L112.976-48.1803C113.668-48.1803 114.091-47.7463 114.091-47.0539L114.091-23.5773C114.091-22.8849 113.668-22.4625 112.976-22.4625L107.005-22.4625Z"/>
  </g>
  <g id="Bold-S" transform="matrix(1 0 0 1 2275.29 696)">
   <path d="M18.8721-13.1348L25.5859-13.1348L25.5859-21.9727L19.8486-21.9727C19.0918-21.9727 18.5791-22.4854 18.5791-23.2422L18.5791-47.3633C18.5791-48.1201 19.0918-48.6572 19.8486-48.6572L25.5859-48.6572L25.5859-57.4707L18.8721-57.4707C13.7695-57.4707 9.76562-53.4668 9.76562-48.3643L9.76562-22.1924C9.76562-17.1875 13.7695-13.1348 18.8721-13.1348ZM34.4238-3.27148L36.9629-3.27148C44.5557-3.27148 49.3652-8.00781 49.3652-15.4541L49.3652-55.0781C49.3652-62.5488 44.5557-67.2852 36.9629-67.2852L34.2041-67.2852C26.9043-67.2852 22.2412-62.5488 22.2412-55.0781L22.2412-15.4541C22.2412-8.00781 26.9775-3.27148 34.4238-3.27148ZM34.5215-12.5977C32.666-12.5977 31.5674-13.8428 31.5674-15.9424L31.5674-54.5898C31.5674-56.6895 32.5928-57.959 34.3018-57.959L36.8652-57.959C38.8428-57.959 40.0635-56.6895 40.0635-54.5898L40.0635-15.9424C40.0635-13.8428 38.8428-12.5977 36.8652-12.5977ZM45.9229-37.3779L83.4473-37.3779L83.4473-46.7041L45.9229-46.7041ZM45.9229-23.9014L83.4473-23.9014L83.4473-33.2275L45.9229-33.2275ZM92.4072-3.27148L94.9463-3.27148C102.393-3.27148 107.129-8.00781 107.129-15.4541L107.129-55.0781C107.129-62.5488 102.466-67.2852 95.166-67.2852L92.4072-67.2852C84.8145-67.2852 80.0049-62.5488 80.0049-55.0781L80.0049-15.4541C80.0049-8.00781 84.8389-3.27148 92.4072-3.27148ZM92.5049-12.5977C90.5273-12.5977 89.3066-13.8428 89.3066-15.9424L89.3066-54.5898C89.3066-56.6895 90.5273-57.959 92.5049-57.959L95.0684-57.959C96.7773-57.959 97.8027-56.6895 97.8027-54.5898L97.8027-15.9424C97.8027-13.8428 96.7041-12.5977 94.8486-12.5977ZM103.809-13.1348L110.498-13.1348C115.601-13.1348 119.604-17.1875 119.604-22.1924L119.604-48.3643C119.604-53.4668 115.601-57.4707 110.498-57.4707L103.809-57.4707L103.809-48.6572L109.521-48.6572C110.278-48.6572 110.791-48.1201 110.791-47.3633L110.791-23.2422C110.791-22.4854 110.278-21.9727 109.521-21.9727L103.809-21.9727Z"/>
  </g>
  <g id="Semibold-S" transform="matrix(1 0 0 1 1980.21 696)">
   <path d="M18.33-13.7924L24.5373-13.7924L24.5373-21.635L18.9688-21.635C18.1676-21.635 17.5927-22.2099 17.5927-23.0111L17.5927-47.5766C17.5927-48.3778 18.1676-48.986 18.9688-48.986L24.5373-48.986L24.5373-56.8131L18.33-56.8131C13.5385-56.8131 9.76562-53.0402 9.76562-48.2487L9.76562-22.3079C9.76562-17.5963 13.5385-13.7924 18.33-13.7924ZM33.0197-4.37344L35.6299-4.37344C42.9827-4.37344 47.4457-8.89648 47.4457-16.2983L47.4457-54.225C47.4457-61.6602 42.9827-66.1832 35.6299-66.1832L32.72-66.1832C25.7668-66.1832 21.5036-61.6602 21.5036-54.225L21.5036-16.2983C21.5036-8.89648 25.8667-4.37344 33.0197-4.37344ZM33.1174-12.7043C31.0309-12.7043 29.8345-14.136 29.8345-16.6089L29.8345-53.9145C29.8345-56.3873 30.931-57.8523 32.8177-57.8523L35.5322-57.8523C37.7853-57.8523 39.1481-56.3873 39.1481-53.9145L39.1481-16.6089C39.1481-14.136 37.7853-12.7043 35.5322-12.7043ZM44.9009-37.6356L81.2078-37.6356L81.2078-45.9665L44.9009-45.9665ZM44.9009-24.639L81.2078-24.639L81.2078-32.9698L44.9009-32.9698ZM90.4788-4.37344L93.089-4.37344C100.242-4.37344 104.605-8.89648 104.605-16.2983L104.605-54.225C104.605-61.6602 100.342-66.1832 93.3887-66.1832L90.4788-66.1832C83.126-66.1832 78.663-61.6602 78.663-54.225L78.663-16.2983C78.663-8.89648 83.1593-4.37344 90.4788-4.37344ZM90.5765-12.7043C88.3234-12.7043 86.9605-14.136 86.9605-16.6089L86.9605-53.9145C86.9605-56.3873 88.3234-57.8523 90.5765-57.8523L93.291-57.8523C95.1777-57.8523 96.2742-56.3873 96.2742-53.9145L96.2742-16.6089C96.2742-14.136 95.0778-12.7043 92.9913-12.7043ZM101.605-13.7924L107.779-13.7924C112.57-13.7924 116.343-17.5963 116.343-22.3079L116.343-48.2487C116.343-53.0402 112.57-56.8131 107.779-56.8131L101.605-56.8131L101.605-48.986L107.14-48.986C107.941-48.986 108.516-48.3778 108.516-47.5766L108.516-23.0111C108.516-22.2099 107.941-21.635 107.14-21.635L101.605-21.635Z"/>
  </g>
  <g id="Medium-S" transform="matrix(1 0 0 1 1684.74 696)">
   <path d="M17.9189-14.291L23.7422-14.291L23.7422-21.3789L18.3018-21.3789C17.4668-21.3789 16.8447-22.001 16.8447-22.8359L16.8447-47.7383C16.8447-48.5732 17.4668-49.2354 18.3018-49.2354L23.7422-49.2354L23.7422-56.3145L17.9189-56.3145C13.3633-56.3145 9.76562-52.7168 9.76562-48.1611L9.76562-22.3955C9.76562-17.9062 13.3633-14.291 17.9189-14.291ZM31.9551-5.20898L34.6191-5.20898C41.79-5.20898 45.9902-9.57031 45.9902-16.9385L45.9902-53.5781C45.9902-60.9863 41.79-65.3477 34.6191-65.3477L31.5947-65.3477C24.9043-65.3477 20.9443-60.9863 20.9443-53.5781L20.9443-16.9385C20.9443-9.57031 25.0244-5.20898 31.9551-5.20898ZM32.0527-12.7852C29.791-12.7852 28.5205-14.3584 28.5205-17.1143L28.5205-53.4023C28.5205-56.1582 29.6709-57.7715 31.6924-57.7715L34.5215-57.7715C36.9834-57.7715 38.4541-56.1582 38.4541-53.4023L38.4541-17.1143C38.4541-14.3584 36.9834-12.7852 34.5215-12.7852ZM44.126-37.8311L79.5098-37.8311L79.5098-45.4072L44.126-45.4072ZM44.126-25.1982L79.5098-25.1982L79.5098-32.7744L44.126-32.7744ZM89.0166-5.20898L91.6807-5.20898C98.6113-5.20898 102.691-9.57031 102.691-16.9385L102.691-53.5781C102.691-60.9863 98.7314-65.3477 92.041-65.3477L89.0166-65.3477C81.8457-65.3477 77.6455-60.9863 77.6455-53.5781L77.6455-16.9385C77.6455-9.57031 81.8857-5.20898 89.0166-5.20898ZM89.1143-12.7852C86.6523-12.7852 85.1816-14.3584 85.1816-17.1143L85.1816-53.4023C85.1816-56.1582 86.6523-57.7715 89.1143-57.7715L91.9434-57.7715C93.9648-57.7715 95.1152-56.1582 95.1152-53.4023L95.1152-17.1143C95.1152-14.3584 93.8447-12.7852 91.583-12.7852ZM99.9336-14.291L105.717-14.291C110.272-14.291 113.87-17.9062 113.87-22.3955L113.87-48.1611C113.87-52.7168 110.272-56.3145 105.717-56.3145L99.9336-56.3145L99.9336-49.2354L105.334-49.2354C106.169-49.2354 106.791-48.5732 106.791-47.7383L106.791-22.8359C106.791-22.001 106.169-21.3789 105.334-21.3789L99.9336-21.3789Z"/>
  </g>
  <g id="Regular-S" transform="matrix(1 0 0 1 1389.64 696)">
   <path d="M17.3828-14.9414L22.7051-14.9414L22.7051-21.0449L17.4316-21.0449C16.5527-21.0449 15.8691-21.7285 15.8691-22.6074L15.8691-47.9492C15.8691-48.8281 16.5527-49.5605 17.4316-49.5605L22.7051-49.5605L22.7051-55.6641L17.3828-55.6641C13.1348-55.6641 9.76562-52.2949 9.76562-48.0469L9.76562-22.5098C9.76562-18.3105 13.1348-14.9414 17.3828-14.9414ZM30.5664-6.29883L33.3008-6.29883C40.2344-6.29883 44.0918-10.4492 44.0918-17.7734L44.0918-52.7344C44.0918-60.1074 40.2344-64.2578 33.3008-64.2578L30.127-64.2578C23.7793-64.2578 20.2148-60.1074 20.2148-52.7344L20.2148-17.7734C20.2148-10.4492 23.9258-6.29883 30.5664-6.29883ZM30.6641-12.8906C28.1738-12.8906 26.8066-14.6484 26.8066-17.7734L26.8066-52.7344C26.8066-55.8594 28.0273-57.666 30.2246-57.666L33.2031-57.666C35.9375-57.666 37.5488-55.8594 37.5488-52.7344L37.5488-17.7734C37.5488-14.6484 35.9375-12.8906 33.2031-12.8906ZM43.1152-38.0859L77.2949-38.0859L77.2949-44.6777L43.1152-44.6777ZM43.1152-25.9277L77.2949-25.9277L77.2949-32.5195L43.1152-32.5195ZM87.1094-6.29883L89.8438-6.29883C96.4844-6.29883 100.195-10.4492 100.195-17.7734L100.195-52.7344C100.195-60.1074 96.6309-64.2578 90.2832-64.2578L87.1094-64.2578C80.1758-64.2578 76.3184-60.1074 76.3184-52.7344L76.3184-17.7734C76.3184-10.4492 80.2246-6.29883 87.1094-6.29883ZM87.207-12.8906C84.4727-12.8906 82.8613-14.6484 82.8613-17.7734L82.8613-52.7344C82.8613-55.8594 84.4727-57.666 87.207-57.666L90.1855-57.666C92.3828-57.666 93.6035-55.8594 93.6035-52.7344L93.6035-17.7734C93.6035-14.6484 92.2363-12.8906 89.7461-12.8906ZM97.7539-14.9414L103.027-14.9414C107.275-14.9414 110.645-18.3105 110.645-22.5098L110.645-48.0469C110.645-52.2949 107.275-55.6641 103.027-55.6641L97.7539-55.6641L97.7539-49.5605L102.979-49.5605C103.857-49.5605 104.541-48.8281 104.541-47.9492L104.541-22.6074C104.541-21.7285 103.857-21.0449 102.979-21.0449L97.7539-21.0449Z"/>
  </g>
  <g id="Light-S" transform="matrix(1 0 0 1 1096.68 696)">
   <path d="M16.5806-15.8345L21.1763-15.8345L21.1763-20.6211L16.6294-20.6211C15.4326-20.6211 14.5523-21.5166 14.5523-22.6982L14.5523-47.8584C14.5523-49.0552 15.4326-49.9995 16.6294-49.9995L21.1763-49.9995L21.1763-54.7861L16.5806-54.7861C12.7261-54.7861 9.76562-51.8106 9.76562-47.9561L9.76562-22.6006C9.76562-18.8101 12.7261-15.8345 16.5806-15.8345ZM28.3262-7.54003L31.0303-7.54003C37.0254-7.54003 40.565-11.1606 40.565-17.2739L40.565-53.2339C40.565-59.4111 37.086-63.0469 31.1514-63.0469L27.9019-63.0469C22.3565-63.0469 19.0796-59.4111 19.0796-53.2339L19.0796-17.2739C19.0796-11.1606 22.5181-7.54003 28.3262-7.54003ZM28.4238-12.6636C25.7974-12.6636 24.2031-14.3911 24.2031-17.2739L24.2031-53.2339C24.2031-56.1318 25.6509-57.9233 27.9995-57.9233L31.0537-57.9233C33.773-57.9233 35.4751-56.1318 35.4751-53.2339L35.4751-17.2739C35.4751-14.3911 33.7276-12.6636 30.9326-12.6636ZM39.5279-38.7065L73.3745-38.7065L73.3745-43.8301L39.5279-43.8301ZM39.5279-26.7754L73.3745-26.7754L73.3745-31.8989L39.5279-31.8989ZM81.8721-7.54003L84.5762-7.54003C90.3843-7.54003 93.8228-11.1606 93.8228-17.2739L93.8228-53.2339C93.8228-59.4111 90.5459-63.0469 85.0005-63.0469L81.751-63.0469C75.8164-63.0469 72.3374-59.4111 72.3374-53.2339L72.3374-17.2739C72.3374-11.1606 75.9107-7.54003 81.8721-7.54003ZM81.9698-12.6636C79.1748-12.6636 77.4273-14.3911 77.4273-17.2739L77.4273-53.2339C77.4273-56.1318 79.1294-57.9233 81.8487-57.9233L84.9029-57.9233C87.2666-57.9233 88.6993-56.1318 88.6993-53.2339L88.6993-17.2739C88.6993-14.3911 87.1202-12.6636 84.4786-12.6636ZM91.7598-15.8345L96.3218-15.8345C100.176-15.8345 103.137-18.8101 103.137-22.6006L103.137-47.9561C103.137-51.8106 100.176-54.7861 96.3218-54.7861L91.7598-54.7861L91.7598-49.9995L96.273-49.9995C97.4698-49.9995 98.3501-49.0552 98.3501-47.8584L98.3501-22.6982C98.3501-21.5166 97.4698-20.6211 96.273-20.6211L91.7598-20.6211Z"/>
  </g>
  <g id="Thin-S" transform="matrix(1 0 0 1 804.936 696)">
   <path d="M15.5195-17.0156L19.1543-17.0156L19.1543-20.0606L15.5684-20.0606C13.9512-20.0606 12.8106-21.2363 12.8106-22.8184L12.8106-47.7383C12.8106-49.3555 13.9512-50.5801 15.5684-50.5801L19.1543-50.5801L19.1543-53.625L15.5195-53.625C12.1856-53.625 9.76562-51.1699 9.76562-47.8359L9.76562-22.7207C9.76562-19.4707 12.1856-17.0156 15.5195-17.0156ZM25.3633-9.18162L28.0274-9.18162C32.7813-9.18162 35.9005-12.1015 35.9005-16.6133L35.9005-53.8945C35.9005-58.4902 32.9219-61.4453 28.3086-61.4453L24.959-61.4453C20.4746-61.4453 17.5781-58.4902 17.5781-53.8945L17.5781-16.6133C17.5781-12.1015 20.6563-9.18162 25.3633-9.18162ZM25.461-12.3633C22.6543-12.3633 20.7598-14.0508 20.7598-16.6133L20.7598-53.8945C20.7598-56.4922 22.5079-58.2637 25.0567-58.2637L28.211-58.2637C30.9102-58.2637 32.7325-56.4922 32.7325-53.8945L32.7325-16.6133C32.7325-14.0508 30.8047-12.3633 27.9297-12.3633ZM34.7833-39.5273L68.1895-39.5273L68.1895-42.709L34.7833-42.709ZM34.7833-27.8965L68.1895-27.8965L68.1895-31.0781L34.7833-31.0781ZM74.9454-9.18162L77.6095-9.18162C82.3165-9.18162 85.3946-12.1015 85.3946-16.6133L85.3946-53.8945C85.3946-58.4902 82.4982-61.4453 78.0138-61.4453L74.6642-61.4453C70.0509-61.4453 67.0723-58.4902 67.0723-53.8945L67.0723-16.6133C67.0723-12.1015 70.2052-9.18162 74.9454-9.18162ZM75.0431-12.3633C72.1681-12.3633 70.2403-14.0508 70.2403-16.6133L70.2403-53.8945C70.2403-56.4922 72.0626-58.2637 74.7618-58.2637L77.9161-58.2637C80.5001-58.2637 82.213-56.4922 82.213-53.8945L82.213-16.6133C82.213-14.0508 80.3536-12.3633 77.5118-12.3633ZM83.8321-17.0156L87.4532-17.0156C90.7872-17.0156 93.2072-19.4707 93.2072-22.7207L93.2072-47.8359C93.2072-51.1699 90.7872-53.625 87.4532-53.625L83.8321-53.625L83.8321-50.5801L87.4044-50.5801C89.0216-50.5801 90.1622-49.3555 90.1622-47.7383L90.1622-22.8184C90.1622-21.2363 89.0216-20.0606 87.4044-20.0606L83.8321-20.0606Z"/>
  </g>
  <g id="Ultralight-S" transform="matrix(1 0 0 1 510.768 696)">
   <path d="M14.9761-17.6206L18.1187-17.6206L18.1187-19.7734L15.0249-19.7734C13.1924-19.7734 11.9185-21.0928 11.9185-22.8799L11.9185-47.6768C11.9185-49.5093 13.1924-50.8774 15.0249-50.8774L18.1187-50.8774L18.1187-53.0303L14.9761-53.0303C11.9087-53.0303 9.76562-50.8418 9.76562-47.7744L9.76562-22.7822C9.76562-19.8091 11.9087-17.6206 14.9761-17.6206ZM23.8458-10.0224L26.4893-10.0224C30.6075-10.0224 33.5113-12.5835 33.5113-16.2749L33.5113-54.2329C33.5113-58.0186 30.7891-60.625 26.8526-60.625L23.4517-60.625C19.5108-60.625 16.8091-58.0186 16.8091-54.2329L16.8091-16.2749C16.8091-12.5835 19.7027-10.0224 23.8458-10.0224ZM23.9434-12.2095C21.0445-12.2095 18.9962-13.8765 18.9962-16.2749L18.9962-54.2329C18.9962-56.6768 20.898-58.438 23.5494-58.438L26.7549-58.438C29.4439-58.438 31.3277-56.6768 31.3277-54.2329L31.3277-16.2749C31.3277-13.8765 29.3077-12.2095 26.3917-12.2095ZM32.3531-39.9477L65.5338-39.9477L65.5338-42.1348L32.3531-42.1348ZM32.3531-28.4707L65.5338-28.4707L65.5338-30.6577L32.3531-30.6577ZM71.3976-10.0224L74.0411-10.0224C78.1842-10.0224 81.0778-12.5835 81.0778-16.2749L81.0778-54.2329C81.0778-58.0186 78.3761-60.625 74.4352-60.625L71.0343-60.625C67.0978-60.625 64.3756-58.0186 64.3756-54.2329L64.3756-16.2749C64.3756-12.5835 67.2828-10.0224 71.3976-10.0224ZM71.4952-12.2095C68.5792-12.2095 66.5592-13.8765 66.5592-16.2749L66.5592-54.2329C66.5592-56.6768 68.443-58.438 71.132-58.438L74.3375-58.438C77.0343-58.438 78.8907-56.6768 78.8907-54.2329L78.8907-16.2749C78.8907-13.8765 76.8878-12.2095 73.9435-12.2095ZM79.7716-17.6206L82.9108-17.6206C85.9782-17.6206 88.1213-19.8091 88.1213-22.7822L88.1213-47.7744C88.1213-50.8418 85.9782-53.0303 82.9108-53.0303L79.7716-53.0303L79.7716-50.8774L82.862-50.8774C84.6945-50.8774 85.9684-49.5093 85.9684-47.6768L85.9684-22.8799C85.9684-21.0928 84.6945-19.7734 82.862-19.7734L79.7716-19.7734Z"/>
  </g>
 </g>
</svg>
