<?xml version="1.0" encoding="UTF-8"?>
<!--Generator: Apple Native CoreSVG 175.5-->
<!DOCTYPE svg
PUBLIC "-//W3C//DTD SVG 1.1//EN"
       "http://www.w3.org/Graphics/SVG/1.1/DTD/svg11.dtd">
<svg version="1.1" xmlns="http://www.w3.org/2000/svg" xmlns:xlink="http://www.w3.org/1999/xlink" width="3300" height="2200">
 <!--glyph: "uni100966.medium", point size: 100.0, font version: "18.0d12e2", template writer version: "101"-->
 <g id="Notes">
  <rect height="2200" id="artboard" style="fill:white;opacity:1" width="3300" x="0" y="0"/>
  <line style="fill:none;stroke:black;opacity:1;stroke-width:0.5;" x1="263" x2="3036" y1="292" y2="292"/>
  <text style="stroke:none;fill:black;font-family:sans-serif;font-size:13;font-weight:bold;" transform="matrix(1 0 0 1 263 322)">Weight/Scale Variations</text>
  <text style="stroke:none;fill:black;font-family:sans-serif;font-size:13;text-anchor:middle;" transform="matrix(1 0 0 1 559.711 322)">Ultralight</text>
  <text style="stroke:none;fill:black;font-family:sans-serif;font-size:13;text-anchor:middle;" transform="matrix(1 0 0 1 856.422 322)">Thin</text>
  <text style="stroke:none;fill:black;font-family:sans-serif;font-size:13;text-anchor:middle;" transform="matrix(1 0 0 1 1153.13 322)">Light</text>
  <text style="stroke:none;fill:black;font-family:sans-serif;font-size:13;text-anchor:middle;" transform="matrix(1 0 0 1 1449.84 322)">Regular</text>
  <text style="stroke:none;fill:black;font-family:sans-serif;font-size:13;text-anchor:middle;" transform="matrix(1 0 0 1 1746.56 322)">Medium</text>
  <text style="stroke:none;fill:black;font-family:sans-serif;font-size:13;text-anchor:middle;" transform="matrix(1 0 0 1 2043.27 322)">Semibold</text>
  <text style="stroke:none;fill:black;font-family:sans-serif;font-size:13;text-anchor:middle;" transform="matrix(1 0 0 1 2339.98 322)">Bold</text>
  <text style="stroke:none;fill:black;font-family:sans-serif;font-size:13;text-anchor:middle;" transform="matrix(1 0 0 1 2636.69 322)">Heavy</text>
  <text style="stroke:none;fill:black;font-family:sans-serif;font-size:13;text-anchor:middle;" transform="matrix(1 0 0 1 2933.4 322)">Black</text>
  <line style="fill:none;stroke:black;opacity:1;stroke-width:0.5;" x1="263" x2="3036" y1="1903" y2="1903"/>
  <g transform="matrix(1 0 0 1 263 1933)">
   <path d="M9.24805 0.830078C13.5547 0.830078 17.1387-2.74414 17.1387-7.05078C17.1387-11.3574 13.5449-14.9316 9.23828-14.9316C4.94141-14.9316 1.36719-11.3574 1.36719-7.05078C1.36719-2.74414 4.95117 0.830078 9.24805 0.830078ZM9.24805-0.654297C5.70312-0.654297 2.87109-3.49609 2.87109-7.05078C2.87109-10.6055 5.69336-13.4473 9.23828-13.4473C12.793-13.4473 15.6445-10.6055 15.6445-7.05078C15.6445-3.49609 12.8027-0.654297 9.24805-0.654297ZM5.6543-7.05078C5.6543-6.62109 5.95703-6.32812 6.40625-6.32812L8.50586-6.32812L8.50586-4.20898C8.50586-3.76953 8.79883-3.4668 9.22852-3.4668C9.67773-3.4668 9.9707-3.76953 9.9707-4.20898L9.9707-6.32812L12.0898-6.32812C12.5293-6.32812 12.832-6.62109 12.832-7.05078C12.832-7.49023 12.5293-7.79297 12.0898-7.79297L9.9707-7.79297L9.9707-9.90234C9.9707-10.3516 9.67773-10.6543 9.22852-10.6543C8.79883-10.6543 8.50586-10.3516 8.50586-9.90234L8.50586-7.79297L6.40625-7.79297C5.95703-7.79297 5.6543-7.49023 5.6543-7.05078Z"/>
  </g>
  <g transform="matrix(1 0 0 1 281.867 1933)">
   <path d="M11.709 2.91016C17.1582 2.91016 21.6699-1.61133 21.6699-7.05078C21.6699-12.5 17.1484-17.0117 11.6992-17.0117C6.25977-17.0117 1.74805-12.5 1.74805-7.05078C1.74805-1.61133 6.26953 2.91016 11.709 2.91016ZM11.709 1.25C7.09961 1.25 3.41797-2.44141 3.41797-7.05078C3.41797-11.6602 7.08984-15.3516 11.6992-15.3516C16.3086-15.3516 20.0098-11.6602 20.0098-7.05078C20.0098-2.44141 16.3184 1.25 11.709 1.25ZM7.17773-7.05078C7.17773-6.57227 7.50977-6.25 8.00781-6.25L10.8789-6.25L10.8789-3.36914C10.8789-2.88086 11.2109-2.53906 11.6895-2.53906C12.1777-2.53906 12.5195-2.87109 12.5195-3.36914L12.5195-6.25L15.4004-6.25C15.8887-6.25 16.2305-6.57227 16.2305-7.05078C16.2305-7.53906 15.8887-7.88086 15.4004-7.88086L12.5195-7.88086L12.5195-10.752C12.5195-11.25 12.1777-11.5918 11.6895-11.5918C11.2109-11.5918 10.8789-11.25 10.8789-10.752L10.8789-7.88086L8.00781-7.88086C7.50977-7.88086 7.17773-7.53906 7.17773-7.05078Z"/>
  </g>
  <g transform="matrix(1 0 0 1 305.646 1933)">
   <path d="M14.9707 5.66406C21.9336 5.66406 27.6953-0.0976562 27.6953-7.05078C27.6953-14.0137 21.9238-19.7754 14.9609-19.7754C8.00781-19.7754 2.25586-14.0137 2.25586-7.05078C2.25586-0.0976562 8.01758 5.66406 14.9707 5.66406ZM14.9707 3.84766C8.93555 3.84766 4.08203-1.01562 4.08203-7.05078C4.08203-13.0957 8.92578-17.9492 14.9609-17.9492C21.0059-17.9492 25.8691-13.0957 25.8691-7.05078C25.8691-1.01562 21.0156 3.84766 14.9707 3.84766ZM9.19922-7.05078C9.19922-6.5332 9.57031-6.17188 10.1172-6.17188L14.0625-6.17188L14.0625-2.2168C14.0625-1.67969 14.4336-1.29883 14.9512-1.29883C15.4883-1.29883 15.8594-1.66992 15.8594-2.2168L15.8594-6.17188L19.8145-6.17188C20.3516-6.17188 20.7324-6.5332 20.7324-7.05078C20.7324-7.59766 20.3613-7.96875 19.8145-7.96875L15.8594-7.96875L15.8594-11.9141C15.8594-12.4609 15.4883-12.8418 14.9512-12.8418C14.4336-12.8418 14.0625-12.4609 14.0625-11.9141L14.0625-7.96875L10.1172-7.96875C9.57031-7.96875 9.19922-7.59766 9.19922-7.05078Z"/>
  </g>
  <text style="stroke:none;fill:black;font-family:sans-serif;font-size:13;font-weight:bold;" transform="matrix(1 0 0 1 263 1953)">Design Variations</text>
  <text style="stroke:none;fill:black;font-family:sans-serif;font-size:13;" transform="matrix(1 0 0 1 263 1971)">Symbols are supported in up to nine weights and three scales.</text>
  <text style="stroke:none;fill:black;font-family:sans-serif;font-size:13;" transform="matrix(1 0 0 1 263 1989)">For optimal layout with text and other symbols, vertically align</text>
  <text style="stroke:none;fill:black;font-family:sans-serif;font-size:13;" transform="matrix(1 0 0 1 263 2007)">symbols with the adjacent text.</text>
  <line style="fill:none;stroke:#00AEEF;stroke-width:0.5;opacity:1.0;" x1="776" x2="776" y1="1919" y2="1933"/>
  <g transform="matrix(1 0 0 1 776 1933)">
   <path d="M3.31055 0.15625C3.82812 0.15625 4.08203-0.0390625 4.26758-0.585938L5.52734-4.0332L11.2891-4.0332L12.5488-0.585938C12.7344-0.0390625 12.9883 0.15625 13.4961 0.15625C14.0137 0.15625 14.3457-0.15625 14.3457-0.644531C14.3457-0.810547 14.3164-0.966797 14.2383-1.17188L9.6582-13.3691C9.43359-13.9648 9.0332-14.2676 8.4082-14.2676C7.80273-14.2676 7.39258-13.9746 7.17773-13.3789L2.59766-1.16211C2.51953-0.957031 2.49023-0.800781 2.49023-0.634766C2.49023-0.146484 2.80273 0.15625 3.31055 0.15625ZM6.00586-5.51758L8.37891-12.0898L8.42773-12.0898L10.8008-5.51758Z"/>
  </g>
  <line style="fill:none;stroke:#00AEEF;stroke-width:0.5;opacity:1.0;" x1="793.197" x2="793.197" y1="1919" y2="1933"/>
  <text style="stroke:none;fill:black;font-family:sans-serif;font-size:13;font-weight:bold;" transform="matrix(1 0 0 1 776 1953)">Margins</text>
  <text style="stroke:none;fill:black;font-family:sans-serif;font-size:13;" transform="matrix(1 0 0 1 776 1971)">Leading and trailing margins on the left and right side of each symbol</text>
  <text style="stroke:none;fill:black;font-family:sans-serif;font-size:13;" transform="matrix(1 0 0 1 776 1989)">can be adjusted by modifying the x-location of the margin guidelines.</text>
  <text style="stroke:none;fill:black;font-family:sans-serif;font-size:13;" transform="matrix(1 0 0 1 776 2007)">Modifications are automatically applied proportionally to all</text>
  <text style="stroke:none;fill:black;font-family:sans-serif;font-size:13;" transform="matrix(1 0 0 1 776 2025)">scales and weights.</text>
  <g transform="matrix(1 0 0 1 1289 1933)">
   <path d="M2.8418 1.86523L4.54102 3.57422C5.40039 4.44336 6.38672 4.38477 7.31445 3.35938L18.0078-8.42773L17.041-9.4043L6.42578 2.27539C6.07422 2.67578 5.74219 2.77344 5.27344 2.30469L4.10156 1.14258C3.63281 0.683594 3.74023 0.341797 4.14062-0.0195312L15.6152-10.8203L14.6387-11.7871L3.04688-0.898438C2.06055 0.0195312 1.98242 0.996094 2.8418 1.86523ZM9.25781-16.3281C8.83789-15.918 8.80859-15.3418 9.04297-14.9512C9.27734-14.5898 9.73633-14.3555 10.3809-14.5215C11.8457-14.8633 13.3691-14.9219 14.7949-13.9844L14.209-12.5293C13.8672-11.6992 14.043-11.1133 14.5801-10.5664L16.875-8.25195C17.3633-7.76367 17.7734-7.74414 18.3398-7.8418L19.4043-8.03711L20.0684-7.36328L20.0293-6.80664C19.9902-6.30859 20.1172-5.92773 20.6055-5.44922L21.3672-4.70703C21.8457-4.22852 22.4609-4.19922 22.9297-4.66797L25.8398-7.58789C26.3086-8.05664 26.2891-8.65234 25.8105-9.13086L25.0391-9.89258C24.5605-10.3711 24.1895-10.5273 23.7109-10.4883L23.1348-10.4395L22.4902-11.0742L22.7344-12.1973C22.8613-12.7637 22.7051-13.2031 22.1191-13.7891L19.9219-15.9766C16.582-19.2969 12.1484-19.2188 9.25781-16.3281ZM10.752-15.957C13.1836-17.7344 16.4746-17.4316 18.7012-15.2051L21.1328-12.793C21.3672-12.5586 21.4062-12.373 21.3379-12.0312L21.0156-10.5469L22.5195-9.0625L23.5059-9.12109C23.7598-9.13086 23.8379-9.11133 24.0332-8.91602L24.6094-8.33984L22.168-5.89844L21.5918-6.47461C21.3965-6.66992 21.3672-6.74805 21.377-7.01172L21.4453-7.98828L19.9512-9.47266L18.4277-9.21875C18.1055-9.15039 17.959-9.17969 17.7148-9.41406L15.7129-11.416C15.459-11.6504 15.4297-11.8164 15.5859-12.1875L16.4648-14.2773C14.9023-15.7324 12.8711-16.3574 10.8398-15.7617C10.6836-15.7227 10.625-15.8496 10.752-15.957Z"/>
  </g>
  <text style="stroke:none;fill:black;font-family:sans-serif;font-size:13;font-weight:bold;" transform="matrix(1 0 0 1 1289 1953)">Exporting</text>
  <text style="stroke:none;fill:black;font-family:sans-serif;font-size:13;" transform="matrix(1 0 0 1 1289 1971)">Symbols should be outlined when exporting to ensure the</text>
  <text style="stroke:none;fill:black;font-family:sans-serif;font-size:13;" transform="matrix(1 0 0 1 1289 1989)">design is preserved when submitting to Xcode.</text>
  <text id="template-version" style="stroke:none;fill:black;font-family:sans-serif;font-size:13;text-anchor:end;" transform="matrix(1 0 0 1 3036 1933)">Template v.4.0</text>
  <text style="stroke:none;fill:black;font-family:sans-serif;font-size:13;text-anchor:end;" transform="matrix(1 0 0 1 3036 1951)">Requires Xcode 14 or greater</text>
  <text id="descriptive-name" style="stroke:none;fill:black;font-family:sans-serif;font-size:13;text-anchor:end;" transform="matrix(1 0 0 1 3036 1969)">Generated from powersleep</text>
  <text style="stroke:none;fill:black;font-family:sans-serif;font-size:13;text-anchor:end;" transform="matrix(1 0 0 1 3036 1987)">Typeset at 100 points</text>
  <text style="stroke:none;fill:black;font-family:sans-serif;font-size:13;" transform="matrix(1 0 0 1 263 726)">Small</text>
  <text style="stroke:none;fill:black;font-family:sans-serif;font-size:13;" transform="matrix(1 0 0 1 263 1156)">Medium</text>
  <text style="stroke:none;fill:black;font-family:sans-serif;font-size:13;" transform="matrix(1 0 0 1 263 1586)">Large</text>
 </g>
 <g id="Guides">
  <g id="H-reference" style="fill:#27AAE1;stroke:none;" transform="matrix(1 0 0 1 339 696)">
   <path d="M0.993654 0L3.63775 0L29.3281-67.1323L30.0303-67.1323L30.0303-70.459L28.1226-70.459ZM11.6885-24.4799L46.9815-24.4799L46.2315-26.7285L12.4385-26.7285ZM55.1196 0L57.7637 0L30.6382-70.459L29.4326-70.459L29.4326-67.1323Z"/>
  </g>
  <line id="Baseline-S" style="fill:none;stroke:#27AAE1;opacity:1;stroke-width:0.5;" x1="263" x2="3036" y1="696" y2="696"/>
  <line id="Capline-S" style="fill:none;stroke:#27AAE1;opacity:1;stroke-width:0.5;" x1="263" x2="3036" y1="625.541" y2="625.541"/>
  <g id="H-reference" style="fill:#27AAE1;stroke:none;" transform="matrix(1 0 0 1 339 1126)">
   <path d="M0.993654 0L3.63775 0L29.3281-67.1323L30.0303-67.1323L30.0303-70.459L28.1226-70.459ZM11.6885-24.4799L46.9815-24.4799L46.2315-26.7285L12.4385-26.7285ZM55.1196 0L57.7637 0L30.6382-70.459L29.4326-70.459L29.4326-67.1323Z"/>
  </g>
  <line id="Baseline-M" style="fill:none;stroke:#27AAE1;opacity:1;stroke-width:0.5;" x1="263" x2="3036" y1="1126" y2="1126"/>
  <line id="Capline-M" style="fill:none;stroke:#27AAE1;opacity:1;stroke-width:0.5;" x1="263" x2="3036" y1="1055.54" y2="1055.54"/>
  <g id="H-reference" style="fill:#27AAE1;stroke:none;" transform="matrix(1 0 0 1 339 1556)">
   <path d="M0.993654 0L3.63775 0L29.3281-67.1323L30.0303-67.1323L30.0303-70.459L28.1226-70.459ZM11.6885-24.4799L46.9815-24.4799L46.2315-26.7285L12.4385-26.7285ZM55.1196 0L57.7637 0L30.6382-70.459L29.4326-70.459L29.4326-67.1323Z"/>
  </g>
  <line id="Baseline-L" style="fill:none;stroke:#27AAE1;opacity:1;stroke-width:0.5;" x1="263" x2="3036" y1="1556" y2="1556"/>
  <line id="Capline-L" style="fill:none;stroke:#27AAE1;opacity:1;stroke-width:0.5;" x1="263" x2="3036" y1="1485.54" y2="1485.54"/>
  <line id="left-margin-Regular-M" style="fill:none;stroke:#00AEEF;stroke-width:0.5;opacity:1.0;" x1="1396.73" x2="1396.73" y1="1030.79" y2="1150.12"/>
  <line id="right-margin-Regular-M" style="fill:none;stroke:#00AEEF;stroke-width:0.5;opacity:1.0;" x1="1502.96" x2="1502.96" y1="1030.79" y2="1150.12"/>
 </g>
 <g id="Symbols">
  <g id="Black-L" transform="matrix(1 0 0 1 2860.51 1556)">
   <path d="M46.121-68.0983C46.121-75.4103 47.442-82.3978 49.3186-86.6773C50.5165-91.0537 46.1493-94.476 41.0764-91.1671C24.0573-80.6261 11.2588-59.2965 11.2588-35.2113C11.2588 2.15259 41.8515 32.7257 79.1958 32.7257C100.862 32.7257 120.452 22.4079 132.745 6.39C136.629 1.23435 133.673-2.7653 128.121-1.69467C123.552-0.714125 118.889-0.161259 114.058-0.161259C76.6929-0.161259 46.121-30.7344 46.121-68.0983Z"/>
  </g>
  <g id="Heavy-L" transform="matrix(1 0 0 1 2564.83 1556)">
   <path d="M44.9344-66.0444C44.9344-74.1564 46.5707-81.9063 49.1535-87.274C50.3205-91.0736 46.6184-94.1347 42.1823-91.322C24.3702-80.7589 11.2588-59.3888 11.2588-35.2251C11.2588 1.57794 41.4748 31.7694 78.2532 31.7694C99.568 31.7694 118.823 21.5919 130.953 5.83123C134.196 1.57382 131.815-1.92893 127.008-0.954256C122.143 0.272406 117.13 0.950005 111.929 0.950005C75.1203 0.950005 44.9344-29.2414 44.9344-66.0444Z"/>
  </g>
  <g id="Bold-L" transform="matrix(1 0 0 1 2269.29 1556)">
   <path d="M43.3475-63.747C43.3475-72.6787 45.2937-81.2172 48.6182-87.7434C49.7319-90.8657 46.7924-93.496 43.0955-91.2384C24.5756-80.6372 11.2588-59.3475 11.2588-35.2405C11.2588 0.870872 40.9838 30.5711 77.0704 30.5711C98.0888 30.5711 117.033 20.4436 128.941 4.83411C131.43 1.61631 129.696-1.2717 125.789-0.412395C120.481 1.18862 114.933 2.06464 109.159 2.06464C73.0345 2.06464 43.3475-27.6356 43.3475-63.747Z"/>
  </g>
  <g id="Semibold-L" transform="matrix(1 0 0 1 1973.38 1556)">
   <path d="M42.2535-62.1631C42.2535-71.66 44.4133-80.7422 48.2492-88.067C49.3262-90.7223 46.9123-93.0556 43.7251-91.1807C24.7172-80.5533 11.2588-59.3191 11.2588-35.2511C11.2588 0.383422 40.6453 29.745 76.2549 29.745C97.0691 29.745 115.799 19.652 127.554 4.14671C129.523 1.6456 128.236-0.818614 124.948-0.0388396C119.335 1.82025 113.419 2.83305 107.25 2.83305C71.5966 2.83305 42.2535-26.5285 42.2535-62.1631Z"/>
  </g>
  <g id="Medium-L" transform="matrix(1 0 0 1 1677.28 1556)">
   <path d="M41.424-60.9621C41.424-70.8876 43.7457-80.382 47.9694-88.3124C49.0185-90.6137 47.0033-92.7217 44.2024-91.137C24.8246-80.4896 11.2588-59.2975 11.2588-35.2592C11.2588 0.0138167 40.3886 29.1187 75.6366 29.1187C96.2959 29.1187 114.864 19.0517 126.503 3.62549C128.077 1.66781 127.128-0.475063 124.311 0.244406C118.466 2.29918 112.27 3.4157 105.802 3.4157C70.5063 3.4157 41.424-25.6891 41.424-60.9621Z"/>
  </g>
  <g id="Regular-L" transform="matrix(1 0 0 1 1381.37 1556)">
   <path d="M40.342-59.3957C40.342-69.8801 42.875-79.9122 47.6045-88.6324C48.6172-90.4719 47.1219-92.2862 44.8251-91.0799C24.9647-80.4067 11.2588-59.2694 11.2588-35.2697C11.2588-0.468277 40.0538 28.3017 74.8301 28.3017C95.2874 28.3017 113.644 18.2688 125.131 2.94564C126.191 1.69678 125.684-0.0269527 123.48 0.613857C117.332 2.92387 110.772 4.17568 103.913 4.17568C69.0842 4.17568 40.342-24.5943 40.342-59.3957Z"/>
  </g>
  <g id="Light-L" transform="matrix(1 0 0 1 1084.78 1556)">
   <path d="M38.4907-59.3957C38.4907-69.3457 40.7184-78.9197 45.1043-87.2201C45.9834-88.8306 44.6218-90.4541 42.5158-89.2478C23.9341-78.479 11.2588-58.2388 11.2588-35.2697C11.2588-0.926323 39.5576 27.3856 73.9141 27.3856C95.0584 27.3856 113.873 16.5893 125.074 0.292786C125.867-0.707967 125.397-2.01182 123.671-1.42827C116.722 1.5879 109.131 3.25958 101.146 3.25958C66.7558 3.25958 38.4907-25.0523 38.4907-59.3957Z"/>
  </g>
  <g id="Thin-L" transform="matrix(1 0 0 1 788.216 1556)">
   <path d="M36.0422-59.3957C36.0422-68.6389 37.866-77.6072 41.7976-85.3522C42.5-86.6598 41.3151-88.0308 39.4615-86.8245C22.571-75.9296 11.2588-56.8757 11.2588-35.2697C11.2588-1.53213 38.9013 26.174 72.7024 26.174C94.7555 26.174 114.175 14.368 124.998-3.21583C125.438-3.88844 125.019-4.63697 123.923-4.12914C115.914-0.179025 106.96 2.04798 97.4859 2.04798C63.6763 2.04798 36.0422-25.6581 36.0422-59.3957Z"/>
  </g>
  <g id="Ultralight-L" transform="matrix(1 0 0 1 491.582 1556)">
   <path d="M34.7881-59.3957C34.7881-68.2769 36.4051-76.9349 40.104-84.3955C40.7159-85.5479 39.6214-86.7897 37.8971-85.5834C21.8729-74.6238 11.2588-56.1775 11.2588-35.2697C11.2588-1.84242 38.5652 25.5534 72.0819 25.5534C94.6003 25.5534 114.331 13.2303 124.959-5.01292C125.218-5.51746 124.825-5.98156 124.052-5.51252C115.5-1.08404 105.848 1.4274 95.6112 1.4274C62.099 1.4274 34.7881-25.9684 34.7881-59.3957Z"/>
  </g>
  <g id="Black-M" transform="matrix(1 0 0 1 2876.05 1126)">
   <path d="M36.5008-62.4594C36.5008-67.3645 37.2119-72.0608 38.0123-74.3841C38.9488-78.2393 35.012-81.1753 30.5603-78.1853C18.2297-70.0248 8.72266-53.6562 8.72266-35.2035C8.72266-5.83621 32.6807 18.116 62.0422 18.116C79.2223 18.116 94.7497 9.89831 104.375-2.86433C107.898-7.59698 105.121-11.0658 100.244-10.1617C96.8498-9.51785 93.3967-9.13983 89.8203-9.13983C60.4533-9.13983 36.5008-33.0921 36.5008-62.4594Z"/>
  </g>
  <g id="Heavy-M" transform="matrix(1 0 0 1 2580.34 1126)">
   <path d="M35.5116-60.4517C35.5116-66.188 36.5591-71.6718 38.0816-75.0977C39.0002-78.4102 35.7011-81.0107 31.8544-78.5058C18.6306-70.3325 8.72266-53.8415 8.72266-35.217C8.72266-6.35571 32.3582 17.2657 61.2053 17.2657C77.9789 17.2657 93.1364 9.25559 102.629-3.16584C105.551-7.04329 103.33-10.0651 99.1377-9.24948C95.5283-8.4302 91.8293-7.96898 87.9943-7.96898C59.1307-7.96898 35.5116-31.5904 35.5116-60.4517Z"/>
  </g>
  <g id="Bold-M" transform="matrix(1 0 0 1 2284.75 1126)">
   <path d="M34.4052-58.2057C34.4052-64.8719 35.8289-71.2367 38.1591-75.8959C39.0577-78.6014 36.472-80.8266 33.3021-78.8643C19.0791-70.6767 8.72266-54.0488 8.72266-35.2321C8.72266-6.93686 31.9974 16.3144 60.2692 16.3144C76.588 16.3144 91.3318 8.53662 100.676-3.50311C102.924-6.4239 101.328-8.94569 97.9002-8.22906C94.05-7.21351 90.076-6.65922 85.9517-6.65922C57.6513-6.65922 34.4052-29.9105 34.4052-58.2057Z"/>
  </g>
  <g id="Semibold-M" transform="matrix(1 0 0 1 1988.81 1126)">
   <path d="M33.6424-56.6574C33.6424-63.9646 35.3256-70.9367 38.2125-76.4463C39.0974-78.7332 37.0035-80.6996 34.3001-79.1114C19.3883-70.914 8.72266-54.1918 8.72266-35.2425C8.72266-7.33749 31.7487 15.6586 59.6238 15.6586C75.6291 15.6586 90.0877 8.04096 99.3293-3.73563C101.114-5.9969 99.9475-8.17395 97.047-7.52558C93.0309-6.37474 88.8673-5.75628 84.5435-5.75628C56.6314-5.75628 33.6424-28.7524 33.6424-56.6574Z"/>
  </g>
  <g id="Medium-M" transform="matrix(1 0 0 1 1692.68 1126)">
   <path d="M33.064-55.4834C33.064-63.2766 34.9439-70.7093 38.253-76.8635C39.1274-78.8331 37.4065-80.6034 35.0568-79.2988C19.6227-71.0939 8.72266-54.3001 8.72266-35.2504C8.72266-7.64127 31.5601 15.1614 59.1344 15.1614C74.902 15.1614 89.1444 7.66514 98.3084-3.91193C99.7411-5.67313 98.9008-7.58879 96.4001-6.99218C92.2582-5.73874 87.9508-5.07164 83.4757-5.07164C55.858-5.07164 33.064-27.8743 33.064-55.4834Z"/>
  </g>
  <g id="Regular-M" transform="matrix(1 0 0 1 1396.73 1126)">
   <path d="M32.3096-53.9521C32.3096-62.3793 34.446-70.4126 38.3059-77.4078C39.1666-78.9634 37.9321-80.4778 36.0438-79.5433C19.9285-71.3286 8.72266-54.4415 8.72266-35.2606C8.72266-8.0375 31.3141 14.5128 58.4961 14.5128C73.9537 14.5128 87.9139 7.17493 96.9767-4.14189C97.9505-5.25082 97.5355-6.82553 95.5563-6.29644C91.2503-4.90918 86.7553-4.17862 82.083-4.17862C54.8493-4.17862 32.3096-26.7289 32.3096-53.9521Z"/>
  </g>
  <g id="Light-M" transform="matrix(1 0 0 1 1100.12 1126)">
   <path d="M30.6498-53.9521C30.6498-61.9002 32.5125-69.5228 36.0644-76.1416C36.8053-77.4919 35.6905-78.8352 33.9734-77.9006C19.0045-69.6004 8.72266-53.5175 8.72266-35.2606C8.72266-8.44816 30.8693 13.6915 57.6748 13.6915C73.7483 13.6915 88.1192 5.66916 96.9254-6.52031C97.6596-7.4068 97.2788-8.60507 95.7274-8.12731C90.7027-6.10694 85.2838-4.99994 79.6019-4.99994C52.7618-4.99994 30.6498-27.1396 30.6498-53.9521Z"/>
  </g>
  <g id="Thin-M" transform="matrix(1 0 0 1 803.547 1126)">
   <path d="M28.4546-53.9521C28.4546-61.2665 29.9552-68.346 33.0998-74.4669C33.6823-75.5456 32.7259-76.6626 31.2351-75.7281C17.7824-67.3147 8.72266-52.2954 8.72266-35.2606C8.72266-8.9913 30.2809 12.6052 56.5885 12.6052C73.4768 12.6052 88.3908 3.67767 96.8575-9.66596C97.2749-10.2583 96.9394-10.9587 95.9537-10.5488C89.9785-7.69109 83.3375-6.08621 76.3205-6.08621C50.0008-6.08621 28.4546-27.6827 28.4546-53.9521Z"/>
  </g>
  <g id="Ultralight-M" transform="matrix(1 0 0 1 506.905 1126)">
   <path d="M27.3303-53.9521C27.3303-60.942 28.6454-67.7433 31.5813-73.6092C32.0827-74.5488 31.2075-75.5499 29.8326-74.6153C17.1565-66.144 8.72266-51.6695 8.72266-35.2606C8.72266-9.26949 29.9795 12.0488 56.0321 12.0488C73.3377 12.0488 88.5299 2.65764 96.8227-11.2771C97.0779-11.7188 96.7655-12.1641 96.0696-11.7891C89.6076-8.50248 82.3407-6.64259 74.6397-6.64259C48.5867-6.64259 27.3303-27.9609 27.3303-53.9521Z"/>
  </g>
  <g id="Black-S" transform="matrix(1 0 0 1 2888.16 696)">
   <path d="M28.8086-57.1777C28.8086-60.7422 29.248-64.1602 29.6387-65.625C30.3711-68.7988 27.0996-71.1914 23.4375-68.7012C14.1113-62.3047 6.83594-49.5605 6.83594-35.2051C6.83594-12.0605 25.6836 6.78711 48.8281 6.78711C62.4512 6.78711 74.7559 0.244141 82.3242-9.91211C85.2539-13.8672 82.9102-16.6992 78.9062-15.9668C76.2695-15.4785 73.584-15.1855 70.8008-15.1855C47.6562-15.1855 28.8086-34.0332 28.8086-57.1777Z"/>
  </g>
  <g id="Heavy-S" transform="matrix(1 0 0 1 2592.29 696)">
   <path d="M28.1747-55.4606C28.1747-59.7972 28.9369-63.9412 29.9844-66.3971C30.7168-69.133 27.9755-71.2606 24.8089-69.1852C14.5723-62.7887 6.83594-49.8371 6.83594-35.2166C6.83594-12.4524 25.4646 6.16479 48.2173 6.16479C61.414 6.16479 73.3499-0.113118 80.8376-9.86601C83.2832-13.1181 81.412-15.6159 77.9382-14.9526C75.2093-14.3952 72.4315-14.0792 69.5561-14.0792C46.7919-14.0792 28.1747-32.6964 28.1747-55.4606Z"/>
  </g>
  <g id="Bold-S" transform="matrix(1 0 0 1 2296.52 696)">
   <path d="M27.4658-53.54C27.4658-58.7402 28.5889-63.6963 30.3711-67.2607C31.1035-69.5068 28.9551-71.3379 26.3428-69.7266C15.0879-63.3301 6.83594-50.1465 6.83594-35.2295C6.83594-12.8906 25.2197 5.46875 47.5342 5.46875C60.2539 5.46875 71.7773-0.512695 79.1748-9.81445C81.0791-12.2803 79.7363-14.4043 76.8555-13.8184C74.0234-13.1836 71.1426-12.8418 68.1641-12.8418C45.8252-12.8418 27.4658-31.2012 27.4658-53.54Z"/>
  </g>
  <g id="Semibold-S" transform="matrix(1 0 0 1 2000.46 696)">
   <path d="M26.9771-52.2159C26.9771-58.0115 28.3489-63.5274 30.6377-67.8562C31.3701-69.7646 29.6305-71.3912 27.4003-70.0998C15.4434-63.7033 6.83594-50.3598 6.83594-35.2384C6.83594-13.1928 25.0509 4.98887 47.0632 4.98887C59.4541 4.98887 70.6932-0.788184 78.0284-9.77891C79.5595-11.7026 78.5811-13.5689 76.109-13.0363C73.2059-12.3482 70.2539-11.9887 67.2043-11.9887C45.1587-11.9887 26.9771-30.1703 26.9771-52.2159Z"/>
  </g>
  <g id="Medium-S" transform="matrix(1 0 0 1 1704.24 696)">
   <path d="M26.6064-51.2119C26.6064-57.459 28.167-63.3994 30.8398-68.3076C31.5723-69.96 30.1426-71.4316 28.2021-70.3828C15.7129-63.9863 6.83594-50.5215 6.83594-35.2451C6.83594-13.4219 24.9229 4.625 46.7061 4.625C58.8477 4.625 69.8711-0.99707 77.1592-9.75195C78.4072-11.2646 77.7051-12.9355 75.543-12.4434C72.5859-11.7148 69.5801-11.3418 66.4766-11.3418C44.6533-11.3418 26.6064-29.3887 26.6064-51.2119Z"/>
  </g>
  <g id="Regular-S" transform="matrix(1 0 0 1 1408.17 696)">
   <path d="M26.123-49.9023C26.123-56.7383 27.9297-63.2324 31.1035-68.8965C31.8359-70.2148 30.8105-71.4844 29.248-70.752C16.0645-64.3555 6.83594-50.7324 6.83594-35.2539C6.83594-13.7207 24.7559 4.15039 46.2402 4.15039C58.0566 4.15039 68.7988-1.26953 76.0254-9.7168C76.9043-10.6934 76.5625-12.1094 74.8047-11.6699C71.7773-10.8887 68.7012-10.498 65.5273-10.498C43.9941-10.498 26.123-28.3691 26.123-49.9023Z"/>
  </g>
  <g id="Light-S" transform="matrix(1 0 0 1 1111.55 696)">
   <path d="M24.6548-49.9023C24.6548-56.3145 26.2193-62.4453 29.1206-67.7764C29.7471-68.9131 28.8277-70.0313 27.4165-69.2988C15.2471-62.8267 6.83594-49.915 6.83594-35.2539C6.83594-14.084 24.3623 3.42383 45.5137 3.42383C57.875 3.42383 68.9805-2.60155 75.98-11.8208C76.647-12.6006 76.3355-13.6836 74.9561-13.2895C71.293-11.9482 67.3994-11.2246 63.3325-11.2246C42.1475-11.2246 24.6548-28.7324 24.6548-49.9023Z"/>
  </g>
  <g id="Thin-S" transform="matrix(1 0 0 1 814.958 696)">
   <path d="M22.7129-49.9023C22.7129-55.7539 23.9571-61.4043 26.4981-66.2949C26.9844-67.1914 26.2051-68.1094 24.9942-67.377C14.166-60.8047 6.83594-48.834 6.83594-35.2539C6.83594-14.5644 23.8418 2.4629 44.5527 2.4629C57.6348 2.4629 69.2207-4.36326 75.9199-14.6035C76.3066-15.123 76.0352-15.7656 75.1562-15.4316C70.6524-13.3496 65.6778-12.1855 60.4297-12.1855C39.7051-12.1855 22.7129-29.2129 22.7129-49.9023Z"/>
  </g>
  <g id="Ultralight-S" transform="matrix(1 0 0 1 518.309 696)">
   <path d="M21.7183-49.9023C21.7183-55.4668 22.7984-60.8711 25.1548-65.5362C25.5694-66.3096 24.8619-67.125 23.7535-66.3926C13.6123-59.7691 6.83594-48.2803 6.83594-35.2539C6.83594-14.8105 23.5752 1.97072 44.0606 1.97072C57.5117 1.97072 69.3437-5.26559 75.8892-16.0288C76.1323-16.415 75.8814-16.832 75.2588-16.5288C70.3242-14.0674 64.7959-12.6777 58.9429-12.6777C38.4541-12.6777 21.7183-29.459 21.7183-49.9023Z"/>
  </g>
 </g>
</svg>
