<?xml version="1.0" encoding="UTF-8"?>
<!--Generator: Apple Native CoreSVG 175.5-->
<!DOCTYPE svg
PUBLIC "-//W3C//DTD SVG 1.1//EN"
       "http://www.w3.org/Graphics/SVG/1.1/DTD/svg11.dtd">
<svg version="1.1" xmlns="http://www.w3.org/2000/svg" xmlns:xlink="http://www.w3.org/1999/xlink" width="3300" height="2200">
 <!--glyph: "uni1017B4.medium", point size: 100.0, font version: "18.0d12e2", template writer version: "101"-->
 <g id="Notes">
  <rect height="2200" id="artboard" style="fill:white;opacity:1" width="3300" x="0" y="0"/>
  <line style="fill:none;stroke:black;opacity:1;stroke-width:0.5;" x1="263" x2="3036" y1="292" y2="292"/>
  <text style="stroke:none;fill:black;font-family:sans-serif;font-size:13;font-weight:bold;" transform="matrix(1 0 0 1 263 322)">Weight/Scale Variations</text>
  <text style="stroke:none;fill:black;font-family:sans-serif;font-size:13;text-anchor:middle;" transform="matrix(1 0 0 1 559.711 322)">Ultralight</text>
  <text style="stroke:none;fill:black;font-family:sans-serif;font-size:13;text-anchor:middle;" transform="matrix(1 0 0 1 856.422 322)">Thin</text>
  <text style="stroke:none;fill:black;font-family:sans-serif;font-size:13;text-anchor:middle;" transform="matrix(1 0 0 1 1153.13 322)">Light</text>
  <text style="stroke:none;fill:black;font-family:sans-serif;font-size:13;text-anchor:middle;" transform="matrix(1 0 0 1 1449.84 322)">Regular</text>
  <text style="stroke:none;fill:black;font-family:sans-serif;font-size:13;text-anchor:middle;" transform="matrix(1 0 0 1 1746.56 322)">Medium</text>
  <text style="stroke:none;fill:black;font-family:sans-serif;font-size:13;text-anchor:middle;" transform="matrix(1 0 0 1 2043.27 322)">Semibold</text>
  <text style="stroke:none;fill:black;font-family:sans-serif;font-size:13;text-anchor:middle;" transform="matrix(1 0 0 1 2339.98 322)">Bold</text>
  <text style="stroke:none;fill:black;font-family:sans-serif;font-size:13;text-anchor:middle;" transform="matrix(1 0 0 1 2636.69 322)">Heavy</text>
  <text style="stroke:none;fill:black;font-family:sans-serif;font-size:13;text-anchor:middle;" transform="matrix(1 0 0 1 2933.4 322)">Black</text>
  <line style="fill:none;stroke:black;opacity:1;stroke-width:0.5;" x1="263" x2="3036" y1="1903" y2="1903"/>
  <g transform="matrix(1 0 0 1 263 1933)">
   <path d="M9.24805 0.830078C13.5547 0.830078 17.1387-2.74414 17.1387-7.05078C17.1387-11.3574 13.5449-14.9316 9.23828-14.9316C4.94141-14.9316 1.36719-11.3574 1.36719-7.05078C1.36719-2.74414 4.95117 0.830078 9.24805 0.830078ZM9.24805-0.654297C5.70312-0.654297 2.87109-3.49609 2.87109-7.05078C2.87109-10.6055 5.69336-13.4473 9.23828-13.4473C12.793-13.4473 15.6445-10.6055 15.6445-7.05078C15.6445-3.49609 12.8027-0.654297 9.24805-0.654297ZM5.6543-7.05078C5.6543-6.62109 5.95703-6.32812 6.40625-6.32812L8.50586-6.32812L8.50586-4.20898C8.50586-3.76953 8.79883-3.4668 9.22852-3.4668C9.67773-3.4668 9.9707-3.76953 9.9707-4.20898L9.9707-6.32812L12.0898-6.32812C12.5293-6.32812 12.832-6.62109 12.832-7.05078C12.832-7.49023 12.5293-7.79297 12.0898-7.79297L9.9707-7.79297L9.9707-9.90234C9.9707-10.3516 9.67773-10.6543 9.22852-10.6543C8.79883-10.6543 8.50586-10.3516 8.50586-9.90234L8.50586-7.79297L6.40625-7.79297C5.95703-7.79297 5.6543-7.49023 5.6543-7.05078Z"/>
  </g>
  <g transform="matrix(1 0 0 1 281.867 1933)">
   <path d="M11.709 2.91016C17.1582 2.91016 21.6699-1.61133 21.6699-7.05078C21.6699-12.5 17.1484-17.0117 11.6992-17.0117C6.25977-17.0117 1.74805-12.5 1.74805-7.05078C1.74805-1.61133 6.26953 2.91016 11.709 2.91016ZM11.709 1.25C7.09961 1.25 3.41797-2.44141 3.41797-7.05078C3.41797-11.6602 7.08984-15.3516 11.6992-15.3516C16.3086-15.3516 20.0098-11.6602 20.0098-7.05078C20.0098-2.44141 16.3184 1.25 11.709 1.25ZM7.17773-7.05078C7.17773-6.57227 7.50977-6.25 8.00781-6.25L10.8789-6.25L10.8789-3.36914C10.8789-2.88086 11.2109-2.53906 11.6895-2.53906C12.1777-2.53906 12.5195-2.87109 12.5195-3.36914L12.5195-6.25L15.4004-6.25C15.8887-6.25 16.2305-6.57227 16.2305-7.05078C16.2305-7.53906 15.8887-7.88086 15.4004-7.88086L12.5195-7.88086L12.5195-10.752C12.5195-11.25 12.1777-11.5918 11.6895-11.5918C11.2109-11.5918 10.8789-11.25 10.8789-10.752L10.8789-7.88086L8.00781-7.88086C7.50977-7.88086 7.17773-7.53906 7.17773-7.05078Z"/>
  </g>
  <g transform="matrix(1 0 0 1 305.646 1933)">
   <path d="M14.9707 5.66406C21.9336 5.66406 27.6953-0.0976562 27.6953-7.05078C27.6953-14.0137 21.9238-19.7754 14.9609-19.7754C8.00781-19.7754 2.25586-14.0137 2.25586-7.05078C2.25586-0.0976562 8.01758 5.66406 14.9707 5.66406ZM14.9707 3.84766C8.93555 3.84766 4.08203-1.01562 4.08203-7.05078C4.08203-13.0957 8.92578-17.9492 14.9609-17.9492C21.0059-17.9492 25.8691-13.0957 25.8691-7.05078C25.8691-1.01562 21.0156 3.84766 14.9707 3.84766ZM9.19922-7.05078C9.19922-6.5332 9.57031-6.17188 10.1172-6.17188L14.0625-6.17188L14.0625-2.2168C14.0625-1.67969 14.4336-1.29883 14.9512-1.29883C15.4883-1.29883 15.8594-1.66992 15.8594-2.2168L15.8594-6.17188L19.8145-6.17188C20.3516-6.17188 20.7324-6.5332 20.7324-7.05078C20.7324-7.59766 20.3613-7.96875 19.8145-7.96875L15.8594-7.96875L15.8594-11.9141C15.8594-12.4609 15.4883-12.8418 14.9512-12.8418C14.4336-12.8418 14.0625-12.4609 14.0625-11.9141L14.0625-7.96875L10.1172-7.96875C9.57031-7.96875 9.19922-7.59766 9.19922-7.05078Z"/>
  </g>
  <text style="stroke:none;fill:black;font-family:sans-serif;font-size:13;font-weight:bold;" transform="matrix(1 0 0 1 263 1953)">Design Variations</text>
  <text style="stroke:none;fill:black;font-family:sans-serif;font-size:13;" transform="matrix(1 0 0 1 263 1971)">Symbols are supported in up to nine weights and three scales.</text>
  <text style="stroke:none;fill:black;font-family:sans-serif;font-size:13;" transform="matrix(1 0 0 1 263 1989)">For optimal layout with text and other symbols, vertically align</text>
  <text style="stroke:none;fill:black;font-family:sans-serif;font-size:13;" transform="matrix(1 0 0 1 263 2007)">symbols with the adjacent text.</text>
  <line style="fill:none;stroke:#00AEEF;stroke-width:0.5;opacity:1.0;" x1="776" x2="776" y1="1919" y2="1933"/>
  <g transform="matrix(1 0 0 1 776 1933)">
   <path d="M3.31055 0.15625C3.82812 0.15625 4.08203-0.0390625 4.26758-0.585938L5.52734-4.0332L11.2891-4.0332L12.5488-0.585938C12.7344-0.0390625 12.9883 0.15625 13.4961 0.15625C14.0137 0.15625 14.3457-0.15625 14.3457-0.644531C14.3457-0.810547 14.3164-0.966797 14.2383-1.17188L9.6582-13.3691C9.43359-13.9648 9.0332-14.2676 8.4082-14.2676C7.80273-14.2676 7.39258-13.9746 7.17773-13.3789L2.59766-1.16211C2.51953-0.957031 2.49023-0.800781 2.49023-0.634766C2.49023-0.146484 2.80273 0.15625 3.31055 0.15625ZM6.00586-5.51758L8.37891-12.0898L8.42773-12.0898L10.8008-5.51758Z"/>
  </g>
  <line style="fill:none;stroke:#00AEEF;stroke-width:0.5;opacity:1.0;" x1="793.197" x2="793.197" y1="1919" y2="1933"/>
  <text style="stroke:none;fill:black;font-family:sans-serif;font-size:13;font-weight:bold;" transform="matrix(1 0 0 1 776 1953)">Margins</text>
  <text style="stroke:none;fill:black;font-family:sans-serif;font-size:13;" transform="matrix(1 0 0 1 776 1971)">Leading and trailing margins on the left and right side of each symbol</text>
  <text style="stroke:none;fill:black;font-family:sans-serif;font-size:13;" transform="matrix(1 0 0 1 776 1989)">can be adjusted by modifying the x-location of the margin guidelines.</text>
  <text style="stroke:none;fill:black;font-family:sans-serif;font-size:13;" transform="matrix(1 0 0 1 776 2007)">Modifications are automatically applied proportionally to all</text>
  <text style="stroke:none;fill:black;font-family:sans-serif;font-size:13;" transform="matrix(1 0 0 1 776 2025)">scales and weights.</text>
  <g transform="matrix(1 0 0 1 1289 1933)">
   <path d="M2.8418 1.86523L4.54102 3.57422C5.40039 4.44336 6.38672 4.38477 7.31445 3.35938L18.0078-8.42773L17.041-9.4043L6.42578 2.27539C6.07422 2.67578 5.74219 2.77344 5.27344 2.30469L4.10156 1.14258C3.63281 0.683594 3.74023 0.341797 4.14062-0.0195312L15.6152-10.8203L14.6387-11.7871L3.04688-0.898438C2.06055 0.0195312 1.98242 0.996094 2.8418 1.86523ZM9.25781-16.3281C8.83789-15.918 8.80859-15.3418 9.04297-14.9512C9.27734-14.5898 9.73633-14.3555 10.3809-14.5215C11.8457-14.8633 13.3691-14.9219 14.7949-13.9844L14.209-12.5293C13.8672-11.6992 14.043-11.1133 14.5801-10.5664L16.875-8.25195C17.3633-7.76367 17.7734-7.74414 18.3398-7.8418L19.4043-8.03711L20.0684-7.36328L20.0293-6.80664C19.9902-6.30859 20.1172-5.92773 20.6055-5.44922L21.3672-4.70703C21.8457-4.22852 22.4609-4.19922 22.9297-4.66797L25.8398-7.58789C26.3086-8.05664 26.2891-8.65234 25.8105-9.13086L25.0391-9.89258C24.5605-10.3711 24.1895-10.5273 23.7109-10.4883L23.1348-10.4395L22.4902-11.0742L22.7344-12.1973C22.8613-12.7637 22.7051-13.2031 22.1191-13.7891L19.9219-15.9766C16.582-19.2969 12.1484-19.2188 9.25781-16.3281ZM10.752-15.957C13.1836-17.7344 16.4746-17.4316 18.7012-15.2051L21.1328-12.793C21.3672-12.5586 21.4062-12.373 21.3379-12.0312L21.0156-10.5469L22.5195-9.0625L23.5059-9.12109C23.7598-9.13086 23.8379-9.11133 24.0332-8.91602L24.6094-8.33984L22.168-5.89844L21.5918-6.47461C21.3965-6.66992 21.3672-6.74805 21.377-7.01172L21.4453-7.98828L19.9512-9.47266L18.4277-9.21875C18.1055-9.15039 17.959-9.17969 17.7148-9.41406L15.7129-11.416C15.459-11.6504 15.4297-11.8164 15.5859-12.1875L16.4648-14.2773C14.9023-15.7324 12.8711-16.3574 10.8398-15.7617C10.6836-15.7227 10.625-15.8496 10.752-15.957Z"/>
  </g>
  <text style="stroke:none;fill:black;font-family:sans-serif;font-size:13;font-weight:bold;" transform="matrix(1 0 0 1 1289 1953)">Exporting</text>
  <text style="stroke:none;fill:black;font-family:sans-serif;font-size:13;" transform="matrix(1 0 0 1 1289 1971)">Symbols should be outlined when exporting to ensure the</text>
  <text style="stroke:none;fill:black;font-family:sans-serif;font-size:13;" transform="matrix(1 0 0 1 1289 1989)">design is preserved when submitting to Xcode.</text>
  <text id="template-version" style="stroke:none;fill:black;font-family:sans-serif;font-size:13;text-anchor:end;" transform="matrix(1 0 0 1 3036 1933)">Template v.4.0</text>
  <text style="stroke:none;fill:black;font-family:sans-serif;font-size:13;text-anchor:end;" transform="matrix(1 0 0 1 3036 1951)">Requires Xcode 14 or greater</text>
  <text id="descriptive-name" style="stroke:none;fill:black;font-family:sans-serif;font-size:13;text-anchor:end;" transform="matrix(1 0 0 1 3036 1969)">Generated from mug</text>
  <text style="stroke:none;fill:black;font-family:sans-serif;font-size:13;text-anchor:end;" transform="matrix(1 0 0 1 3036 1987)">Typeset at 100 points</text>
  <text style="stroke:none;fill:black;font-family:sans-serif;font-size:13;" transform="matrix(1 0 0 1 263 726)">Small</text>
  <text style="stroke:none;fill:black;font-family:sans-serif;font-size:13;" transform="matrix(1 0 0 1 263 1156)">Medium</text>
  <text style="stroke:none;fill:black;font-family:sans-serif;font-size:13;" transform="matrix(1 0 0 1 263 1586)">Large</text>
 </g>
 <g id="Guides">
  <g id="H-reference" style="fill:#27AAE1;stroke:none;" transform="matrix(1 0 0 1 339 696)">
   <path d="M0.993654 0L3.63775 0L29.3281-67.1323L30.0303-67.1323L30.0303-70.459L28.1226-70.459ZM11.6885-24.4799L46.9815-24.4799L46.2315-26.7285L12.4385-26.7285ZM55.1196 0L57.7637 0L30.6382-70.459L29.4326-70.459L29.4326-67.1323Z"/>
  </g>
  <line id="Baseline-S" style="fill:none;stroke:#27AAE1;opacity:1;stroke-width:0.5;" x1="263" x2="3036" y1="696" y2="696"/>
  <line id="Capline-S" style="fill:none;stroke:#27AAE1;opacity:1;stroke-width:0.5;" x1="263" x2="3036" y1="625.541" y2="625.541"/>
  <g id="H-reference" style="fill:#27AAE1;stroke:none;" transform="matrix(1 0 0 1 339 1126)">
   <path d="M0.993654 0L3.63775 0L29.3281-67.1323L30.0303-67.1323L30.0303-70.459L28.1226-70.459ZM11.6885-24.4799L46.9815-24.4799L46.2315-26.7285L12.4385-26.7285ZM55.1196 0L57.7637 0L30.6382-70.459L29.4326-70.459L29.4326-67.1323Z"/>
  </g>
  <line id="Baseline-M" style="fill:none;stroke:#27AAE1;opacity:1;stroke-width:0.5;" x1="263" x2="3036" y1="1126" y2="1126"/>
  <line id="Capline-M" style="fill:none;stroke:#27AAE1;opacity:1;stroke-width:0.5;" x1="263" x2="3036" y1="1055.54" y2="1055.54"/>
  <g id="H-reference" style="fill:#27AAE1;stroke:none;" transform="matrix(1 0 0 1 339 1556)">
   <path d="M0.993654 0L3.63775 0L29.3281-67.1323L30.0303-67.1323L30.0303-70.459L28.1226-70.459ZM11.6885-24.4799L46.9815-24.4799L46.2315-26.7285L12.4385-26.7285ZM55.1196 0L57.7637 0L30.6382-70.459L29.4326-70.459L29.4326-67.1323Z"/>
  </g>
  <line id="Baseline-L" style="fill:none;stroke:#27AAE1;opacity:1;stroke-width:0.5;" x1="263" x2="3036" y1="1556" y2="1556"/>
  <line id="Capline-L" style="fill:none;stroke:#27AAE1;opacity:1;stroke-width:0.5;" x1="263" x2="3036" y1="1485.54" y2="1485.54"/>
  <line id="left-margin-Regular-M" style="fill:none;stroke:#00AEEF;stroke-width:0.5;opacity:1.0;" x1="1390.56" x2="1390.56" y1="1030.79" y2="1150.12"/>
  <line id="right-margin-Regular-M" style="fill:none;stroke:#00AEEF;stroke-width:0.5;opacity:1.0;" x1="1509.13" x2="1509.13" y1="1030.79" y2="1150.12"/>
 </g>
 <g id="Symbols">
  <g id="Black-L" transform="matrix(1 0 0 1 2847.25 1556)">
   <path d="M66.7873 38.831L79.5602 38.831C110.434 38.831 130.284 21.6498 130.284-4.8329L130.284-84.6112C130.284-100.812 107.033-109.37 73.1726-109.37C39.3145-109.37 16.084-100.812 16.084-84.6112L16.084-4.8329C16.084 21.6498 35.9339 38.831 66.7873 38.831ZM66.7873 21.9785C45.983 21.9785 32.9573 11.6592 32.9573-4.8329L32.9573-70.8376C41.5737-67.5052 56.4181-65.5809 73.1726-65.5809C89.9282-65.5809 104.795-67.5052 113.411-70.8376L113.411-4.8329C113.411 11.6592 100.385 21.9785 79.5602 21.9785ZM73.1726-81.9164C51.3175-81.9164 36.0834-84.2869 36.0834-87.7373C36.0834-91.2097 51.3175-93.5814 73.1726-93.5814C95.0496-93.5814 110.285-91.2097 110.285-87.7373C110.285-84.2869 95.0496-81.9164 73.1726-81.9164ZM119.641-1.73415L133.709-1.73415C147.418-1.73415 156.219-10.7569 156.219-24.7238L156.219-50.1009C156.219-64.0691 147.418-73.071 133.709-73.071L119.641-73.071L119.641-56.8026L133.709-56.8026C137.68-56.8026 139.929-54.4132 139.929-50.1009L139.929-24.7238C139.929-20.4128 137.68-18.0234 133.709-18.0234L119.641-18.0234Z"/>
  </g>
  <g id="Heavy-L" transform="matrix(1 0 0 1 2553.05 1556)">
   <path d="M64.8801 36.9062L77.44 36.9062C107.223 36.9062 126.266 20.5186 126.266-4.92177L126.266-84.5444C126.266-99.5059 103.599-107.446 71.1544-107.446C38.7215-107.446 16.084-99.5059 16.084-84.5444L16.084-4.92177C16.084 20.5186 35.1276 36.9062 64.8801 36.9062ZM64.8801 21.9388C44.0984 21.9388 31.0816 11.5924 31.0816-4.92177L31.0816-72.3496C39.6591-68.9548 54.4214-67.1054 71.1544-67.1054C87.8931-67.1054 102.691-68.9548 111.269-72.3496L111.269-4.92177C111.269 11.5924 98.2519 21.9388 77.44 21.9388ZM71.1544-81.5636C49.2757-81.5636 34.0079-83.9811 34.0079-87.4707C34.0079-90.9961 49.2757-93.4192 71.1544-93.4192C93.069-93.4192 108.342-90.9961 108.342-87.4707C108.342-83.9811 93.069-81.5636 71.1544-81.5636ZM116.665-2.852L129.798-2.852C142.836-2.852 151.198-11.4604 151.198-24.7241L151.198-50.1589C151.198-63.4282 142.836-72.0064 129.798-72.0064L116.665-72.0064L116.665-57.4852L129.798-57.4852C134.312-57.4852 136.647-55.0197 136.647-50.1589L136.647-24.7241C136.647-19.8689 134.312-17.4034 129.798-17.4034L116.665-17.4034Z"/>
  </g>
  <g id="Bold-L" transform="matrix(1 0 0 1 2259.57 1556)">
   <path d="M62.4763 34.4719L74.6854 34.4719C103.079 34.4719 121.116 19.0604 121.116-5.06668L121.116-84.4376C121.116-97.8623 99.2374-105.011 68.5677-105.011C37.9243-105.011 16.084-97.8623 16.084-84.4376L16.084-5.06668C16.084 19.0604 34.1212 34.4719 62.4763 34.4719ZM62.4763 21.8702C41.7253 21.8702 28.7237 11.4856 28.7237-5.06668L28.7237-74.1052C37.1507-70.6112 51.8131-68.8242 68.5677-68.8242C85.3355-68.8242 100.049-70.6112 108.476-74.1052L108.476-5.06668C108.476 11.4856 95.4745 21.8702 74.6854 21.8702ZM68.5677-80.9468C46.6731-80.9468 31.3221-83.4703 31.3221-87.0359C31.3221-90.6528 46.6731-93.1895 68.5677-93.1895C90.5134-93.1895 105.878-90.6528 105.878-87.0359C105.878-83.4703 90.5134-80.9468 68.5677-80.9468ZM112.902-4.22026L124.822-4.22026C136.971-4.22026 144.729-12.2393 144.729-24.5825L144.729-50.2505C144.729-62.6069 136.971-70.588 124.822-70.588L112.902-70.588L112.902-58.2783L124.822-58.2783C129.924-58.2783 132.381-55.6981 132.381-50.2505L132.381-24.5825C132.381-19.1481 129.924-16.5679 124.822-16.5679L112.902-16.5679Z"/>
  </g>
  <g id="Semibold-L" transform="matrix(1 0 0 1 1965.09 1556)">
   <path d="M60.8192 32.7938L72.7865 32.7938C100.222 32.7938 117.565 18.0551 117.565-5.16658L117.565-84.3639C117.565-96.7292 96.2309-103.333 66.7843-103.333C37.3748-103.333 16.084-96.7292 16.084-84.3639L16.084-5.16658C16.084 18.0551 33.4274 32.7938 60.8192 32.7938ZM60.8192 21.8229C40.0892 21.8229 27.0982 11.4119 27.0982-5.16658L27.0982-75.3155C35.4215-71.7531 50.0149-70.0091 66.7843-70.0091C83.5723-70.0091 98.2275-71.7531 106.551-75.3155L106.551-5.16658C106.551 11.4119 93.5598 21.8229 72.7865 21.8229ZM66.7843-80.5216C44.8789-80.5216 29.4705-83.1183 29.4705-86.7362C29.4705-90.4161 44.8789-93.0312 66.7843-93.0312C88.7516-93.0312 104.179-90.4161 104.179-86.7362C104.179-83.1183 88.7516-80.5216 66.7843-80.5216ZM110.308-5.16352L121.393-5.16352C132.928-5.16352 140.268-12.7763 140.268-24.4849L140.268-50.3136C140.268-62.0407 132.928-69.6101 121.393-69.6101L110.308-69.6101L110.308-58.825L121.393-58.825C126.898-58.825 129.44-56.1659 129.44-50.3136L129.44-24.4849C129.44-18.6511 126.898-15.992 121.393-15.992L110.308-15.992Z"/>
  </g>
  <g id="Medium-L" transform="matrix(1 0 0 1 1670.07 1556)">
   <path d="M59.5627 31.5213L71.3466 31.5213C98.0553 31.5213 114.873 17.2929 114.873-5.24233L114.873-84.3081C114.873-95.8701 93.9512-102.061 65.4322-102.061C36.9581-102.061 16.084-95.8701 16.084-84.3081L16.084-5.24233C16.084 17.2929 32.9014 31.5213 59.5627 31.5213ZM59.5627 21.7871C38.8487 21.7871 25.8656 11.3561 25.8656-5.24233L25.8656-76.2332C34.1103-72.6189 48.6515-70.9076 65.4322-70.9076C82.2353-70.9076 96.8464-72.6189 105.091-76.2332L105.091-5.24233C105.091 11.3561 92.108 21.7871 71.3466 21.7871ZM65.4322-80.1991C43.5185-80.1991 28.0666-82.8513 28.0666-86.509C28.0666-90.2366 43.5185-92.9112 65.4322-92.9112C87.4157-92.9112 102.89-90.2366 102.89-86.509C102.89-82.8513 87.4157-80.1991 65.4322-80.1991ZM108.341-5.87875L118.792-5.87875C129.862-5.87875 136.887-13.1835 136.887-24.4109L136.887-50.3615C136.887-61.6113 129.862-68.8687 118.792-68.8687L108.341-68.8687L108.341-59.2396L118.792-59.2396C124.604-59.2396 127.21-56.5205 127.21-50.3615L127.21-24.4109C127.21-18.2743 124.604-15.5553 118.792-15.5553L108.341-15.5553Z"/>
  </g>
  <g id="Regular-L" transform="matrix(1 0 0 1 1375.56 1556)">
   <path d="M57.9237 29.8616L69.4685 29.8616C95.2297 29.8616 111.361 16.2987 111.361-5.34114L111.361-84.2352C111.361-94.7494 90.9777-100.401 63.6684-100.401C36.4145-100.401 16.084-94.7494 16.084-84.2352L16.084-5.34114C16.084 16.2987 32.2152 29.8616 57.9237 29.8616ZM57.9237 21.7404C37.2307 21.7404 24.258 11.2832 24.258-5.34114L24.258-77.4301C32.4-73.7483 46.873-72.0795 63.6684-72.0795C80.4915-72.0795 95.045-73.7483 103.187-77.4301L103.187-5.34114C103.187 11.2832 90.2143 21.7404 69.4685 21.7404ZM63.6684-79.7786C41.744-79.7786 26.2353-82.5031 26.2353-86.2126C26.2353-90.0025 41.744-92.7546 63.6684-92.7546C85.6733-92.7546 101.21-90.0025 101.21-86.2126C101.21-82.5031 85.6733-79.7786 63.6684-79.7786ZM105.775-6.81164L115.4-6.81164C125.864-6.81164 132.475-13.7146 132.475-24.3143L132.475-50.424C132.475-61.0513 125.864-67.9016 115.4-67.9016L105.775-67.9016L105.775-59.7803L115.4-59.7803C121.612-59.7803 124.301-56.9831 124.301-50.424L124.301-24.3143C124.301-17.7829 121.612-14.9856 115.4-14.9856L105.775-14.9856Z"/>
  </g>
  <g id="Light-L" transform="matrix(1 0 0 1 1081.9 1556)">
   <path d="M55.9961 27.8576L66.7393 27.8576C91.2982 27.8576 106.685 14.9245 106.685-5.66558L106.685-84.0062C106.685-93.4517 87.2751-98.3971 61.321-98.3971C35.4603-98.3971 16.084-93.4517 16.084-84.0062L16.084-5.66558C16.084 14.9245 31.4709 27.8576 55.9961 27.8576ZM55.9961 21.5686C35.3412 21.5686 22.4067 11.0542 22.4067-5.66558L22.4067-77.8882C29.7853-73.9964 44.2011-72.1749 61.321-72.1749C78.4876-72.1749 92.9838-73.9964 100.362-77.8882L100.362-5.66558C100.362 11.0542 87.4278 21.5686 66.7393 21.5686ZM61.321-78.1945C39.4729-78.1945 23.6397-81.3007 23.6397-85.2392C23.6397-89.2582 39.4729-92.4111 61.321-92.4111C83.2495-92.4111 99.1293-89.2582 99.1293-85.2392C99.1293-81.3007 83.2495-78.1945 61.321-78.1945ZM102.684-7.6514L111.125-7.6514C120.596-7.6514 126.387-13.6574 126.387-23.3028L126.387-50.6148C126.387-60.307 120.596-66.2793 111.125-66.2793L102.684-66.2793L102.684-59.9903L111.125-59.9903C117.184-59.9903 120.064-56.9831 120.064-50.6148L120.064-23.3028C120.064-16.9813 117.184-13.9741 111.125-13.9741L102.684-13.9741Z"/>
  </g>
  <g id="Thin-L" transform="matrix(1 0 0 1 789.213 1556)">
   <path d="M53.4467 25.2073L63.1297 25.2073C86.0983 25.2073 100.501 13.1071 100.501-6.0947L100.501-83.7033C100.501-91.7352 82.3782-95.7467 58.2162-95.7467C34.1982-95.7467 16.084-91.7352 16.084-83.7033L16.084-6.0947C16.084 13.1071 30.4865 25.2073 53.4467 25.2073ZM53.4467 21.3414C32.8423 21.3414 19.9582 10.7513 19.9582-6.0947L19.9582-78.494C26.3272-74.3245 40.6672-72.3011 58.2162-72.3011C75.8372-72.3011 90.2576-74.3245 96.6266-78.494L96.6266-6.0947C96.6266 10.7513 83.7425 21.3414 63.1297 21.3414ZM58.2162-76.0994C36.4691-76.0994 20.2068-79.7105 20.2068-83.9519C20.2068-88.2738 36.4691-91.9568 58.2162-91.9568C80.0438-91.9568 96.378-88.2738 96.378-83.9519C96.378-79.7105 80.0438-76.0994 58.2162-76.0994ZM98.5943-8.76204L105.471-8.76204C113.63-8.76204 118.335-13.5816 118.335-21.965L118.335-50.8672C118.335-59.3226 113.63-64.1337 105.471-64.1337L98.5943-64.1337L98.5943-60.2679L105.471-60.2679C111.328-60.2679 114.461-56.9831 114.461-50.8672L114.461-21.965C114.461-15.9211 111.328-12.6363 105.471-12.6363L98.5943-12.6363Z"/>
  </g>
  <g id="Ultralight-L" transform="matrix(1 0 0 1 494.564 1556)">
   <path d="M52.1409 23.8497L61.2809 23.8497C83.435 23.8497 97.3333 12.1763 97.3333-6.31448L97.3333-83.5482C97.3333-90.8561 79.87-94.3891 56.626-94.3891C33.5517-94.3891 16.084-90.8561 16.084-83.5482L16.084-6.31448C16.084 12.1763 29.9823 23.8497 52.1409 23.8497ZM52.1409 21.2251C31.5624 21.2251 18.7042 10.5962 18.7042-6.31448L18.7042-78.8043C24.556-74.4926 38.8572-72.3657 56.626-72.3657C74.4796-72.3657 88.8613-74.4926 94.7131-78.8043L94.7131-6.31448C94.7131 10.5962 81.8549 21.2251 61.2809 21.2251ZM56.626-75.0264C34.9306-75.0264 18.4485-78.8959 18.4485-83.2925C18.4485-87.7695 34.9306-91.724 56.626-91.724C78.4018-91.724 94.9688-87.7695 94.9688-83.2925C94.9688-78.8959 78.4018-75.0264 56.626-75.0264ZM96.4999-9.3309L102.575-9.3309C110.061-9.3309 114.211-13.5428 114.211-21.2798L114.211-50.9965C114.211-58.8184 110.061-63.0348 102.575-63.0348L96.4999-63.0348L96.4999-60.4101L102.575-60.4101C108.329-60.4101 111.591-56.9831 111.591-50.9965L111.591-21.2798C111.591-15.3781 108.329-11.9511 102.575-11.9511L96.4999-11.9511Z"/>
  </g>
  <g id="Black-M" transform="matrix(1 0 0 1 2864.91 1126)">
   <path d="M53.1208 23.5311L63.0911 23.5311C87.7858 23.5311 103.756 9.62334 103.756-11.6476L103.756-73.5139C103.756-86.9864 85.3729-94.0523 58.1062-94.0523C30.839-94.0523 12.4609-86.9864 12.4609-73.5139L12.4609-11.6476C12.4609 9.62334 28.4316 23.5311 53.1208 23.5311ZM53.1208 9.10284C36.9886 9.10284 26.8946 1.12348 26.8946-11.6476L26.8946-61.5792C33.5-59.0227 45.0635-57.4467 58.1062-57.4467C71.1487-57.4467 82.7174-59.0227 89.3228-61.5792L89.3228-11.6476C89.3228 1.12348 79.2288 9.10284 63.0911 9.10284ZM58.1062-71.4884C41.2049-71.4884 29.3875-73.3362 29.3875-76.0067C29.3875-78.6824 41.2049-80.53 58.1062-80.53C75.0128-80.53 86.8299-78.6824 86.8299-76.0067C86.8299-73.3362 75.0128-71.4884 58.1062-71.4884ZM94.8294-8.4323L106.373-8.4323C117.435-8.4323 124.519-15.6571 124.519-26.9531L124.519-46.7271C124.519-58.0227 117.435-65.2421 106.373-65.2421L94.8294-65.2421L94.8294-51.3848L106.373-51.3848C108.961-51.3848 110.656-49.5707 110.656-46.7271L110.656-26.9531C110.656-24.1092 108.961-22.295 106.373-22.295L94.8294-22.295Z"/>
  </g>
  <g id="Heavy-M" transform="matrix(1 0 0 1 2570.37 1126)">
   <path d="M51.4343 21.8343L61.2702 21.8343C85.0088 21.8343 100.26 8.64424 100.26-11.7045L100.26-73.4698C100.26-85.8289 82.3571-92.3556 56.3499-92.3556C30.3473-92.3556 12.4609-85.8289 12.4609-73.4698L12.4609-11.7045C12.4609 8.64424 27.7121 21.8343 51.4343 21.8343ZM51.4343 9.07983C35.3206 9.07983 25.2318 1.07932 25.2318-11.7045L25.2318-63.015C31.8697-60.4168 43.3581-58.9282 56.3499-58.9282C69.3441-58.9282 80.8512-60.4168 87.4891-63.015L87.4891-11.7045C87.4891 1.07932 77.4003 9.07983 61.2702 9.07983ZM56.3499-71.2896C39.4184-71.2896 27.5979-73.1482 27.5979-75.8359C27.5979-78.5423 39.4184-80.4031 56.3499-80.4031C73.3002-80.4031 85.1229-78.5423 85.1229-75.8359C85.1229-73.1482 73.3002-71.2896 56.3499-71.2896ZM92.2053-9.44761L102.943-9.44761C113.442-9.44761 120.173-16.3501 120.173-27.0466L120.173-46.7661C120.173-57.4649 113.442-64.351 102.943-64.351L92.2053-64.351L92.2053-52.0328L102.943-52.0328C106.077-52.0328 107.838-50.1636 107.838-46.7661L107.838-27.0466C107.838-23.6515 106.077-21.7822 102.943-21.7822L92.2053-21.7822Z"/>
  </g>
  <g id="Bold-M" transform="matrix(1 0 0 1 2276.09 1126)">
   <path d="M49.5476 19.9362L59.2332 19.9362C81.9023 19.9362 96.3485 7.54897 96.3485-11.7682L96.3485-73.4204C96.3485-84.534 78.9835-90.4574 54.3853-90.4574C29.7973-90.4574 12.4609-84.534 12.4609-73.4204L12.4609-11.7682C12.4609 7.54897 26.9071 19.9362 49.5476 19.9362ZM49.5476 9.05409C33.4547 9.05409 23.3716 1.02993 23.3716-11.7682L23.3716-64.6212C30.0458-61.9764 41.4503-60.5855 54.3853-60.5855C67.3254-60.5855 78.7636-61.9764 85.4378-64.6212L85.4378-11.7682C85.4378 1.02993 75.3547 9.05409 59.2332 9.05409ZM54.3853-71.0673C37.42-71.0673 25.5961-72.9379 25.5961-75.6448C25.5961-78.3855 37.42-80.2612 54.3853-80.2612C71.3843-80.2612 83.2134-78.3855 83.2134-75.6448C83.2134-72.9379 71.3843-71.0673 54.3853-71.0673ZM89.2699-10.5834L99.1069-10.5834C108.975-10.5834 115.311-17.1254 115.311-27.1513L115.311-46.8098C115.311-56.8408 108.975-63.3542 99.1069-63.3542L89.2699-63.3542L89.2699-52.7576L99.1069-52.7576C102.851-52.7576 104.686-50.8268 104.686-46.8098L104.686-27.1513C104.686-23.1394 102.851-21.2086 99.1069-21.2086L89.2699-21.2086Z"/>
  </g>
  <g id="Semibold-M" transform="matrix(1 0 0 1 1981.06 1126)">
   <path d="M48.247 18.6276L57.829 18.6276C79.7607 18.6276 93.652 6.7939 93.652-11.8121L93.652-73.3863C93.652-83.6414 76.6578-89.1489 53.0309-89.1489C29.4181-89.1489 12.4609-83.6414 12.4609-73.3863L12.4609-11.8121C12.4609 6.7939 26.3522 18.6276 48.247 18.6276ZM48.247 9.03634C32.1684 9.03634 22.0893 0.995875 22.0893-11.8121L22.0893-65.7284C28.7885-63.0516 40.1351-61.728 53.0309-61.728C65.9337-61.728 77.3245-63.0516 84.0237-65.7284L84.0237-11.8121C84.0237 0.995875 73.9446 9.03634 57.829 9.03634ZM53.0309-70.914C36.0423-70.914 24.216-72.7928 24.216-75.5131C24.216-78.2774 36.0423-80.1634 53.0309-80.1634C70.0636-80.1634 81.8969-78.2774 81.8969-75.5131C81.8969-72.7928 70.0636-70.914 53.0309-70.914ZM87.2463-11.3664L96.4622-11.3664C105.895-11.3664 111.96-17.6598 111.96-27.2234L111.96-46.8399C111.96-56.4106 105.895-62.667 96.4622-62.667L87.2463-62.667L87.2463-53.2573L96.4622-53.2573C100.627-53.2573 102.513-51.284 102.513-46.8399L102.513-27.2234C102.513-22.7864 100.627-20.8131 96.4622-20.8131L87.2463-20.8131Z"/>
  </g>
  <g id="Medium-M" transform="matrix(1 0 0 1 1685.62 1126)">
   <path d="M47.2607 17.6354L56.7642 17.6354C78.1369 17.6354 91.6074 6.22138 91.6074-11.8454L91.6074-73.3605C91.6074-82.9645 74.8943-88.1567 52.0039-88.1567C29.1306-88.1567 12.4609-82.9645 12.4609-73.3605L12.4609-11.8454C12.4609 6.22138 25.9315 17.6354 47.2607 17.6354ZM47.2607 9.02288C31.1931 9.02288 21.1169 0.970055 21.1169-11.8454L21.1169-66.568C27.8351-63.8669 39.1379-62.5944 52.0039-62.5944C64.8785-62.5944 76.2332-63.8669 82.9515-66.568L82.9515-11.8454C82.9515 0.970055 72.8753 9.02288 56.7642 9.02288ZM52.0039-70.7978C34.9976-70.7978 23.1696-72.6829 23.1696-75.4132C23.1696-78.1955 34.9976-80.0892 52.0039-80.0892C69.0622-80.0892 80.8988-78.1955 80.8988-75.4132C80.8988-72.6829 69.0622-70.7978 52.0039-70.7978ZM85.7119-11.9601L94.4569-11.9601C103.56-11.9601 109.418-18.0651 109.418-27.2781L109.418-46.8627C109.418-56.0844 103.56-62.146 94.4569-62.146L85.7119-62.146L85.7119-53.6362L94.4569-53.6362C98.9408-53.6362 100.865-51.6307 100.865-46.8627L100.865-27.2781C100.865-22.5188 98.9408-20.5133 94.4569-20.5133L85.7119-20.5133Z"/>
  </g>
  <g id="Regular-M" transform="matrix(1 0 0 1 1390.56 1126)">
   <path d="M45.9744 16.3413L55.3754 16.3413C76.0189 16.3413 88.9406 5.4746 88.9406-11.8888L88.9406-73.3268C88.9406-82.0817 72.5941-86.8626 50.6643-86.8626C28.7557-86.8626 12.4609-82.0817 12.4609-73.3268L12.4609-11.8888C12.4609 5.4746 25.3827 16.3413 45.9744 16.3413ZM45.9744 9.00533C29.9209 9.00533 19.8486 0.936376 19.8486-11.8888L19.8486-67.6631C26.5916-64.9302 37.8371-63.7243 50.6643-63.7243C63.5021-63.7243 74.8099-64.9302 81.5529-67.6631L81.5529-11.8888C81.5529 0.936376 71.4806 9.00533 55.3754 9.00533ZM50.6643-70.6462C33.6351-70.6462 21.8047-72.5395 21.8047-75.2829C21.8047-78.0886 33.6351-79.9924 50.6643-79.9924C67.7559-79.9924 79.5968-78.0886 79.5968-75.2829C79.5968-72.5395 67.7559-70.6462 50.6643-70.6462ZM83.7105-12.7345L91.8413-12.7345C100.514-12.7345 106.104-18.5936 106.104-27.3495L106.104-46.8925C106.104-55.6589 100.514-61.4663 91.8413-61.4663L83.7105-61.4663L83.7105-54.1304L91.8413-54.1304C96.7412-54.1304 98.7159-52.0829 98.7159-46.8925L98.7159-27.3495C98.7159-22.1696 96.7412-20.1221 91.8413-20.1221L83.7105-20.1221Z"/>
  </g>
  <g id="Light-M" transform="matrix(1 0 0 1 1096.58 1126)">
   <path d="M44.2462 14.5446L52.9285 14.5446C72.494 14.5446 84.7484 4.24262 84.7484-12.1797L84.7484-73.1215C84.7484-80.9181 69.2746-85.0659 48.5597-85.0659C27.9001-85.0659 12.4609-80.9181 12.4609-73.1215L12.4609-12.1797C12.4609 4.24262 24.7153 14.5446 44.2462 14.5446ZM44.2462 8.85134C28.2269 8.85134 18.1889 0.731045 18.1889-12.1797L18.1889-68.0738C24.2474-65.1527 35.4416-63.8099 48.5597-63.8099C61.7055-63.8099 72.9619-65.1527 79.0205-68.0738L79.0205-12.1797C79.0205 0.731045 68.9824 8.85134 52.9285 8.85134ZM48.5597-69.226C31.5988-69.226 19.4776-71.4615 19.4776-74.4102C19.4776-77.4213 31.5988-79.6844 48.5597-79.6844C65.5828-79.6844 77.7317-77.4213 77.7317-74.4102C77.7317-71.4615 65.5828-69.226 48.5597-69.226ZM80.9385-13.4873L88.0084-13.4873C95.7911-13.4873 100.645-18.5423 100.645-26.4426L100.645-47.0636C100.645-54.9916 95.7911-60.0119 88.0084-60.0119L80.9385-60.0119L80.9385-54.3186L88.0084-54.3186C92.7715-54.3186 94.9172-52.0829 94.9172-47.0636L94.9172-26.4426C94.9172-21.451 92.7715-19.2153 88.0084-19.2153L80.9385-19.2153Z"/>
  </g>
  <g id="Thin-M" transform="matrix(1 0 0 1 803.479 1126)">
   <path d="M41.9605 12.1684L49.6923 12.1684C67.8321 12.1684 79.2039 2.61321 79.2039-12.5644L79.2039-72.8499C79.2039-79.3792 64.8843-82.6897 45.7761-82.6897C26.7686-82.6897 12.4609-79.3792 12.4609-72.8499L12.4609-12.5644C12.4609 2.61321 23.8327 12.1684 41.9605 12.1684ZM41.9605 8.64766C25.9865 8.64766 15.9937 0.459477 15.9937-12.5644L15.9937-68.6169C21.147-65.4469 32.2733-63.923 45.7761-63.923C59.3292-63.923 70.5178-65.4469 75.6712-68.6169L75.6712-12.5644C75.6712 0.459477 65.6784 8.64766 49.6923 8.64766ZM45.7761-67.3477C28.9058-67.3477 16.3999-70.0358 16.3999-73.2561C16.3999-76.5387 28.9058-79.2771 45.7761-79.2771C62.7087-79.2771 75.265-76.5387 75.265-73.2561C75.265-70.0358 62.7087-67.3477 45.7761-67.3477ZM77.2723-14.4831L82.9392-14.4831C89.545-14.4831 93.426-18.4744 93.426-25.2432L93.426-47.2899C93.426-54.109 89.545-58.0883 82.9392-58.0883L77.2723-58.0883L77.2723-54.5676L82.9392-54.5676C87.5212-54.5676 89.8933-52.0829 89.8933-47.2899L89.8933-25.2432C89.8933-20.5005 87.5212-18.0158 82.9392-18.0158L77.2723-18.0158Z"/>
  </g>
  <g id="Ultralight-M" transform="matrix(1 0 0 1 508.616 1126)">
   <path d="M40.7898 10.9513L48.0348 10.9513C65.4443 10.9513 76.364 1.77864 76.364-12.7615L76.364-72.7108C76.364-78.591 62.6355-81.4726 44.3504-81.4726C26.189-81.4726 12.4609-78.591 12.4609-72.7108L12.4609-12.7615C12.4609 1.77864 23.3807 10.9513 40.7898 10.9513ZM40.7898 8.54334C24.8389 8.54334 14.8693 0.320382 14.8693-12.7615L14.8693-68.8951C19.559-65.5976 30.6505-63.981 44.3504-63.981C58.1122-63.981 69.266-65.5976 73.9556-68.8951L73.9556-12.7615C73.9556 0.320382 63.9861 8.54334 48.0348 8.54334ZM44.3504-66.3856C27.5264-66.3856 14.8234-69.3055 14.8234-72.6649C14.8234-76.0866 27.5264-79.0684 44.3504-79.0684C61.2366-79.0684 74.0015-76.0866 74.0015-72.6649C74.0015-69.3055 61.2366-66.3856 44.3504-66.3856ZM75.3945-14.9931L80.3427-14.9931C86.3458-14.9931 89.7284-18.4396 89.7284-24.6288L89.7284-47.4059C89.7284-53.6569 86.3458-57.1031 80.3427-57.1031L75.3945-57.1031L75.3945-54.6951L80.3427-54.6951C84.832-54.6951 87.32-52.0829 87.32-47.4059L87.32-24.6288C87.32-20.0137 84.832-17.4015 80.3427-17.4015L75.3945-17.4015Z"/>
  </g>
  <g id="Black-S" transform="matrix(1 0 0 1 2879.23 696)">
   <path d="M42.041 11.2305L49.8535 11.2305C69.4336 11.2305 82.1289 0.146484 82.1289-16.748L82.1289-65.2344C82.1289-76.0742 67.627-81.7383 45.9473-81.7383C24.2676-81.7383 9.76562-76.0742 9.76562-65.2344L9.76562-16.748C9.76562 0.146484 22.4609 11.2305 42.041 11.2305ZM42.041-0.488281C29.3945-0.488281 21.4844-6.73828 21.4844-16.748L21.4844-55.4688C26.6113-53.4668 35.6934-52.1973 45.9473-52.1973C56.2012-52.1973 65.2832-53.4668 70.4102-55.4688L70.4102-16.748C70.4102-6.73828 62.5-0.488281 49.8535-0.488281ZM45.9473-63.623C32.7148-63.623 23.4375-65.0879 23.4375-67.1875C23.4375-69.2871 32.7148-70.752 45.9473-70.752C59.1797-70.752 68.457-69.2871 68.457-67.1875C68.457-65.0879 59.1797-63.623 45.9473-63.623ZM74.9512-13.9648L84.1797-13.9648C92.9688-13.9648 98.584-19.6777 98.584-28.6621L98.584-44.2383C98.584-53.2227 92.9688-58.9355 84.1797-58.9355L74.9512-58.9355L74.9512-47.7051L84.1797-47.7051C86.0352-47.7051 87.3535-46.2891 87.3535-44.2383L87.3535-28.6621C87.3535-26.6113 86.0352-25.1953 84.1797-25.1953L74.9512-25.1953Z"/>
  </g>
  <g id="Heavy-S" transform="matrix(1 0 0 1 2584.02 696)">
   <path d="M40.8194 10.0089L48.6089 10.0089C67.509 10.0089 79.6742-0.533459 79.6742-16.7596L79.6742-65.2229C79.6742-75.2329 65.4719-80.5167 44.7141-80.5167C23.9564-80.5167 9.76562-75.2329 9.76562-65.2229L9.76562-16.7596C9.76562-0.533459 21.9308 10.0089 40.8194 10.0089ZM40.8194-0.488281C28.1845-0.488281 20.2743-6.74981 20.2743-16.7596L20.2743-56.6442C25.5165-54.6308 34.5409-53.4534 44.7141-53.4534C54.8874-53.4534 63.9233-54.6308 69.1655-56.6442L69.1655-16.7596C69.1655-6.74981 61.2554-0.488281 48.6089-0.488281ZM44.7141-63.6346C31.4472-63.6346 22.2044-65.0648 22.2044-67.1529C22.2044-69.2525 31.4472-70.6828 44.7141-70.6828C57.9927-70.6828 67.2354-69.2525 67.2354-67.1529C67.2354-65.0648 57.9927-63.6346 44.7141-63.6346ZM73.0612-14.737L81.7365-14.737C90.1568-14.737 95.5646-20.277 95.5646-28.858L95.5646-44.2498C95.5646-52.8308 90.1568-58.3593 81.7365-58.3593L73.0612-58.3593L73.0612-48.2352L81.7365-48.2352C84.076-48.2352 85.4289-46.7961 85.4289-44.2498L85.4289-28.858C85.4289-26.3117 84.076-24.8726 81.7365-24.8726L73.0612-24.8726Z"/>
  </g>
  <g id="Bold-S" transform="matrix(1 0 0 1 2289 696)">
   <path d="M39.4531 8.64258L47.2168 8.64258C65.3564 8.64258 76.9287-1.29395 76.9287-16.7725L76.9287-65.21C76.9287-74.292 63.0615-79.1504 43.335-79.1504C23.6084-79.1504 9.76562-74.292 9.76562-65.21L9.76562-16.7725C9.76562-1.29395 21.3379 8.64258 39.4531 8.64258ZM39.4531-0.488281C26.8311-0.488281 18.9209-6.7627 18.9209-16.7725L18.9209-57.959C24.292-55.9326 33.252-54.8584 43.335-54.8584C53.418-54.8584 62.4023-55.9326 67.7734-57.959L67.7734-16.7725C67.7734-6.7627 59.8633-0.488281 47.2168-0.488281ZM43.335-63.6475C30.0293-63.6475 20.8252-65.0391 20.8252-67.1143C20.8252-69.2139 30.0293-70.6055 43.335-70.6055C56.665-70.6055 65.8691-69.2139 65.8691-67.1143C65.8691-65.0391 56.665-63.6475 43.335-63.6475ZM70.9473-15.6006L79.0039-15.6006C87.0117-15.6006 92.1875-20.9473 92.1875-29.0771L92.1875-44.2627C92.1875-52.3926 87.0117-57.7148 79.0039-57.7148L70.9473-57.7148L70.9473-48.8281L79.0039-48.8281C81.8848-48.8281 83.2764-47.3633 83.2764-44.2627L83.2764-29.0771C83.2764-25.9766 81.8848-24.5117 79.0039-24.5117L70.9473-24.5117Z"/>
  </g>
  <g id="Semibold-S" transform="matrix(1 0 0 1 1993.45 696)">
   <path d="M38.5111 7.70059L46.257 7.70059C63.8724 7.70059 75.0358-1.81826 75.0358-16.7813L75.0358-65.2011C75.0358-73.6433 61.3997-78.2084 42.3841-78.2084C23.3685-78.2084 9.76562-73.6433 9.76562-65.2011L9.76562-16.7813C9.76562-1.81826 20.9291 7.70059 38.5111 7.70059ZM38.5111-0.488281C25.8979-0.488281 17.9878-6.77158 17.9878-16.7813L17.9878-58.8654C23.4478-56.8302 32.3633-55.8271 42.3841-55.8271C52.4049-55.8271 61.3537-56.8302 66.8137-58.8654L66.8137-16.7813C66.8137-6.77158 58.9035-0.488281 46.257-0.488281ZM42.3841-63.6563C29.0518-63.6563 19.8743-65.0213 19.8743-67.0876C19.8743-69.1872 29.0518-70.5521 42.3841-70.5521C55.7497-70.5521 64.9271-69.1872 64.9271-67.0876C64.9271-65.0213 55.7497-63.6563 42.3841-63.6563ZM69.4898-16.196L77.1199-16.196C84.8434-16.196 89.8592-21.4094 89.8592-29.2282L89.8592-44.2716C89.8592-52.0904 84.8434-57.2705 77.1199-57.2705L69.4898-57.2705L69.4898-49.2369L77.1199-49.2369C80.374-49.2369 81.7923-47.7543 81.7923-44.2716L81.7923-29.2282C81.7923-25.7455 80.374-24.2629 77.1199-24.2629L69.4898-24.2629Z"/>
  </g>
  <g id="Medium-S" transform="matrix(1 0 0 1 1697.63 696)">
   <path d="M37.7969 6.98633L45.5293 6.98633C62.7471 6.98633 73.6006-2.21582 73.6006-16.7881L73.6006-65.1943C73.6006-73.1514 60.1396-77.4941 41.6631-77.4941C23.1865-77.4941 9.76562-73.1514 9.76562-65.1943L9.76562-16.7881C9.76562-2.21582 20.6191 6.98633 37.7969 6.98633ZM37.7969-0.488281C25.1904-0.488281 17.2803-6.77832 17.2803-16.7881L17.2803-59.5527C22.8076-57.5107 31.6895-56.5615 41.6631-56.5615C51.6367-56.5615 60.5586-57.5107 66.0859-59.5527L66.0859-16.7881C66.0859-6.77832 58.1758-0.488281 45.5293-0.488281ZM41.6631-63.6631C28.3105-63.6631 19.1533-65.0078 19.1533-67.0674C19.1533-69.167 28.3105-70.5117 41.6631-70.5117C55.0557-70.5117 64.2129-69.167 64.2129-67.0674C64.2129-65.0078 55.0557-63.6631 41.6631-63.6631ZM68.3848-16.6475L75.6914-16.6475C83.1992-16.6475 88.0938-21.7598 88.0938-29.3428L88.0938-44.2783C88.0938-51.8613 83.1992-56.9336 75.6914-56.9336L68.3848-56.9336L68.3848-49.5469L75.6914-49.5469C79.2285-49.5469 80.667-48.0508 80.667-44.2783L80.667-29.3428C80.667-25.5703 79.2285-24.0742 75.6914-24.0742L68.3848-24.0742Z"/>
  </g>
  <g id="Regular-S" transform="matrix(1 0 0 1 1402.07 696)">
   <path d="M36.8652 6.05469L44.5801 6.05469C61.2793 6.05469 71.7285-2.73438 71.7285-16.7969L71.7285-65.1855C71.7285-72.5098 58.4961-76.5625 40.7227-76.5625C22.9492-76.5625 9.76562-72.5098 9.76562-65.1855L9.76562-16.7969C9.76562-2.73438 20.2148 6.05469 36.8652 6.05469ZM36.8652-0.488281C24.2676-0.488281 16.3574-6.78711 16.3574-16.7969L16.3574-60.4492C21.9727-58.3984 30.8105-57.5195 40.7227-57.5195C50.6348-57.5195 59.5215-58.3984 65.1367-60.4492L65.1367-16.7969C65.1367-6.78711 57.2266-0.488281 44.5801-0.488281ZM40.7227-63.6719C27.3438-63.6719 18.2129-64.9902 18.2129-67.041C18.2129-69.1406 27.3438-70.459 40.7227-70.459C54.1504-70.459 63.2812-69.1406 63.2812-67.041C63.2812-64.9902 54.1504-63.6719 40.7227-63.6719ZM66.9434-17.2363L73.8281-17.2363C81.0547-17.2363 85.791-22.2168 85.791-29.4922L85.791-44.2871C85.791-51.5625 81.0547-56.4941 73.8281-56.4941L66.9434-56.4941L66.9434-49.9512L73.8281-49.9512C77.7344-49.9512 79.1992-48.4375 79.1992-44.2871L79.1992-29.4922C79.1992-25.3418 77.7344-23.8281 73.8281-23.8281L66.9434-23.8281Z"/>
  </g>
  <g id="Light-S" transform="matrix(1 0 0 1 1107.77 696)">
   <path d="M35.3364 4.46534L42.4155 4.46534C58.1612 4.46534 68.02-3.82421 68.02-17.0542L68.02-65.0039C68.02-71.4805 55.5596-74.9732 38.8609-74.9732C22.1924-74.9732 9.76562-71.4805 9.76562-65.0039L9.76562-17.0542C9.76562-3.82421 19.6245 4.46534 35.3364 4.46534ZM35.3364-0.624511C22.7691-0.624511 14.8892-6.96875 14.8892-17.0542L14.8892-60.8125C19.8989-58.5952 28.6914-57.5952 38.8609-57.5952C49.0454-57.5952 57.8867-58.5952 62.8965-60.8125L62.8965-17.0542C62.8965-6.96875 55.0166-0.624511 42.4155-0.624511ZM38.8609-62.4155C25.5425-62.4155 16.1543-64.0366 16.1543-66.269C16.1543-68.5503 25.5425-70.1865 38.8609-70.1865C52.228-70.1865 61.6314-68.5503 61.6314-66.269C61.6314-64.0366 52.228-62.4155 38.8609-62.4155ZM64.4912-17.9023L70.4375-17.9023C76.877-17.9023 80.9624-22.1714 80.9624-28.6899L80.9624-44.4385C80.9624-50.9722 76.877-55.2075 70.4375-55.2075L64.4912-55.2075L64.4912-50.1177L70.4375-50.1177C74.2227-50.1177 75.8389-48.4375 75.8389-44.4385L75.8389-28.6899C75.8389-24.7061 74.2227-23.0259 70.4375-23.0259L64.4912-23.0259Z"/>
  </g>
  <g id="Thin-S" transform="matrix(1 0 0 1 814.251 696)">
   <path d="M33.3145 2.36331L39.5528 2.36331C54.0372 2.36331 63.1153-5.26561 63.1153-17.3945L63.1153-64.7637C63.1153-70.1192 51.6758-72.8711 36.3985-72.8711C21.1914-72.8711 9.76562-70.1192 9.76562-64.7637L9.76562-17.3945C9.76562-5.26561 18.8438 2.36331 33.3145 2.36331ZM33.3145-0.804685C20.7871-0.804685 12.9473-7.20898 12.9473-17.3945L12.9473-61.293C17.1563-58.8555 25.8887-57.6953 36.3985-57.6953C46.9434-57.6953 55.7246-58.8555 59.9336-61.293L59.9336-17.3945C59.9336-7.20898 52.0938-0.804685 39.5528-0.804685ZM36.3985-60.7539C23.1602-60.7539 13.4317-62.7754 13.4317-65.2481C13.4317-67.7695 23.1602-69.8262 36.3985-69.8262C49.6856-69.8262 59.4492-67.7695 59.4492-65.2481C59.4492-62.7754 49.6856-60.7539 36.3985-60.7539ZM61.2481-18.7832L65.9532-18.7832C71.3516-18.7832 74.5763-22.1113 74.5763-27.6289L74.5763-44.6387C74.5763-50.1914 71.3516-53.5059 65.9532-53.5059L61.2481-53.5059L61.2481-50.3379L65.9532-50.3379C69.5782-50.3379 71.3946-48.4375 71.3946-44.6387L71.3946-27.6289C71.3946-23.8652 69.5782-21.9649 65.9532-21.9649L61.2481-21.9649Z"/>
  </g>
  <g id="Ultralight-S" transform="matrix(1 0 0 1 519.176 696)">
   <path d="M32.2788 1.28666L38.0865 1.28666C51.9249 1.28666 60.6031-6.00388 60.6031-17.5688L60.6031-64.6406C60.6031-69.4219 49.6866-71.7945 35.1373-71.7945C20.6787-71.7945 9.76562-69.4219 9.76562-64.6406L9.76562-17.5688C9.76562-6.00388 18.4439 1.28666 32.2788 1.28666ZM32.2788-0.896969C19.772-0.896969 11.9527-7.33203 11.9527-17.5688L11.9527-61.5391C15.7515-58.9888 24.4532-57.7466 35.1373-57.7466C45.8667-57.7466 54.6172-58.9888 58.4161-61.5391L58.4161-17.5688C58.4161-7.33203 50.5967-0.896969 38.0865-0.896969ZM35.1373-59.9029C21.94-59.9029 12.0372-62.1294 12.0372-64.7251C12.0372-67.3696 21.94-69.6416 35.1373-69.6416C48.3833-69.6416 58.3316-67.3696 58.3316-64.7251C58.3316-62.1294 48.3833-59.9029 35.1373-59.9029ZM59.587-19.2344L63.6563-19.2344C68.5216-19.2344 71.3053-22.0806 71.3053-27.0855L71.3053-44.7412C71.3053-49.7915 68.5216-52.6343 63.6563-52.6343L59.587-52.6343L59.587-50.4507L63.6563-50.4507C67.1993-50.4507 69.1182-48.4375 69.1182-44.7412L69.1182-27.0855C69.1182-23.4346 67.1993-21.4214 63.6563-21.4214L59.587-21.4214Z"/>
  </g>
 </g>
</svg>
